<svg width="24" height="24" viewBox="0 0 24 24" fill="none" xmlns="http://www.w3.org/2000/svg">
<g clip-path="url(#clip0_155_416)">
<path d="M12.0065 0C8.9733 0.0127567 6.05632 1.16843 3.83723 3.23659C1.61815 5.30474 0.260013 8.13338 0.0336441 11.1585C-0.192725 14.1837 0.729304 17.183 2.61587 19.5584C4.50244 21.9339 7.21494 23.5109 10.2125 23.975V15.2582H7.2445V12.0902H10.2134V9.97823C10.2134 6.4848 11.9067 4.95168 14.7941 4.95168C15.617 4.94072 16.4396 4.99077 17.2552 5.10144V7.872H15.2846C14.0578 7.872 13.6297 9.04125 13.6297 10.3584V12.0922H17.2235L16.7368 15.2602H13.6307V24C16.6466 23.5733 19.3892 22.0211 21.3077 19.655C23.2261 17.2889 24.1781 14.2843 23.9725 11.245C23.7668 8.20575 22.4186 5.35688 20.1989 3.2709C17.9792 1.18491 15.0523 0.0163452 12.0065 0Z" fill="#53ACFF"/>
</g>
<defs>
<clipPath id="clip0_155_416">
<rect width="24" height="24" fill="white"/>
</clipPath>
</defs>
</svg>
