<svg width="24" height="24" viewBox="0 0 24 24" fill="none" xmlns="http://www.w3.org/2000/svg">
<path opacity="0.85" d="M6.9984 0C5.14243 0.00254181 3.36325 0.741215 2.05124 2.05395C0.73922 3.36668 0.00152372 5.14626 0 7.00224V17.0016C0.00254181 18.8576 0.741215 20.6368 2.05395 21.9487C3.36668 23.2608 5.14626 23.9985 7.00224 24H17.0016C18.8576 23.9974 20.6368 23.2588 21.9487 21.9461C23.2608 20.6333 23.9985 18.8537 24 16.9978V6.9984C23.9974 5.14243 23.2588 3.36325 21.9461 2.05124C20.6333 0.73922 18.8537 0.00152372 16.9978 0H6.9984ZM18.9984 4.00032C19.1964 3.99994 19.39 4.05831 19.5547 4.16804C19.7195 4.27777 19.8481 4.43392 19.924 4.61672C20 4.79953 20.02 5.00077 19.9816 5.19497C19.9431 5.38916 19.8479 5.56758 19.708 5.70763C19.5681 5.84768 19.3898 5.94307 19.1956 5.98171C19.0014 6.02035 18.8002 6.00053 18.6173 5.92472C18.4344 5.84892 18.2782 5.72056 18.1682 5.55589C18.0584 5.39122 17.9998 5.19765 18 4.99968C18.0002 4.73455 18.1057 4.48036 18.2933 4.29297C18.4809 4.10557 18.7351 4.00032 19.0003 4.00032H18.9984ZM12 6C13.1867 6 14.3467 6.35189 15.3334 7.01118C16.3201 7.67047 17.0891 8.60753 17.5433 9.70388C17.9974 10.8002 18.1163 12.0067 17.8847 13.1705C17.6532 14.3344 17.0818 15.4035 16.2427 16.2427C15.4035 17.0818 14.3344 17.6532 13.1705 17.8847C12.0067 18.1163 10.8002 17.9974 9.70388 17.5433C8.60753 17.0891 7.67047 16.3201 7.01118 15.3334C6.35189 14.3467 6 13.1867 6 12C6.00152 10.4092 6.63415 8.8839 7.75905 7.75905C8.8839 6.63415 10.4092 6.00152 12 6ZM12 7.99965C11.2088 7.99965 10.4354 8.23432 9.77753 8.67382C9.1197 9.1134 8.60692 9.73815 8.30415 10.4692C8.00137 11.2001 7.92217 12.0044 8.07652 12.7804C8.23087 13.5564 8.61188 14.2692 9.17138 14.8286C9.7308 15.3881 10.4436 15.7691 11.2196 15.9235C11.9956 16.0778 12.7999 15.9986 13.5308 15.6958C14.2618 15.3931 14.8866 14.8803 15.3262 14.2225C15.7657 13.5646 16.0003 12.7912 16.0003 12C16.0003 10.939 15.5788 9.92153 14.8286 9.17138C14.0785 8.42115 13.061 7.99965 12 7.99965Z" fill="#FF4694"/>
</svg>
