<svg width="24" height="24" viewBox="0 0 24 24" fill="none" xmlns="http://www.w3.org/2000/svg">
<path d="M20.8 0H3.2C1.43269 0 0 1.43269 0 3.2V20.8C0 22.5673 1.43269 24 3.2 24H20.8C22.5673 24 24 22.5673 24 20.8V3.2C24 1.43269 22.5673 0 20.8 0Z" fill="#5C8AFF"/>
<path d="M6.5522 10.1468H9.12394V17.9199H6.5522V10.1468ZM7.85528 6.3999C6.97508 6.3999 6.40002 6.98029 6.40002 7.74206C6.40002 8.48817 6.95825 9.08543 7.82162 9.08543H7.83802C8.73505 9.08543 9.29368 8.48814 9.29368 7.74206C9.27685 6.98029 8.73508 6.3999 7.85528 6.3999ZM15.4383 9.96425C14.0732 9.96425 13.4616 10.7184 13.1204 11.2473V10.1468H10.5479C10.582 10.8761 10.5479 17.9199 10.5479 17.9199H13.1204V13.5789C13.1204 13.3464 13.1373 13.1147 13.2049 12.9482C13.3912 12.4841 13.8145 12.0034 14.5244 12.0034C15.4559 12.0034 15.8279 12.7166 15.8279 13.761V17.9199H18.4V13.4627C18.4 11.0751 17.1314 9.96425 15.4383 9.96425Z" fill="white"/>
</svg>
