<svg width="170" height="29" viewBox="0 0 170 29" fill="none" xmlns="http://www.w3.org/2000/svg">
<path d="M27.4087 27.9552H43.3394V23.331H32.7937V20.2202H42.2175V15.9323H32.7937V12.9616H43.1992V8.3374H27.4087V27.9552Z" fill="#232935"/>
<path d="M46.116 27.9552H51.501V17.1934L59.887 27.9552H64.655V8.3374H59.27V18.7068L51.1925 8.3374H46.116V27.9552Z" fill="#232935"/>
<path d="M72.9289 27.9552H78.37V13.1017H84.2599V8.3374H67.0391V13.1017H72.9289V27.9552Z" fill="#232935"/>
<path d="M96.5166 28.3475C102.575 28.3475 107.118 23.7794 107.118 18.1463V18.0902C107.118 12.4572 102.631 7.94507 96.5727 7.94507C90.5145 7.94507 85.9709 12.5132 85.9709 18.1463V18.2024C85.9709 23.8354 90.4584 28.3475 96.5166 28.3475ZM96.5727 23.4431C93.5997 23.4431 91.5522 20.9769 91.5522 18.1463V18.0902C91.5522 15.2597 93.5436 12.8495 96.5166 12.8495C99.5176 12.8495 101.565 15.3157 101.565 18.1463V18.2024C101.565 21.0329 99.5737 23.4431 96.5727 23.4431Z" fill="#232935"/>
<path d="M109.951 27.9552H115.392V22.0138H117.776L121.731 27.9552H128.013L123.33 21.117C125.77 20.08 127.368 18.0902 127.368 15.0915V15.0355C127.368 13.1017 126.779 11.5883 125.629 10.4673C124.311 9.12211 122.236 8.3374 119.235 8.3374H109.951V27.9552ZM115.392 17.7539V13.0457H118.954C120.777 13.0457 121.899 13.8304 121.899 15.3718V15.4278C121.899 16.8571 120.833 17.7539 118.982 17.7539H115.392Z" fill="#232935"/>
<path d="M133 20.8558H134.508V16.3002H137.752C140.595 16.3002 143 14.8615 143 12.0765V12.0396C143 9.49436 141.015 7.94507 138 7.94507H133V20.8558ZM134.508 14.9722V9.29148H137.885C140.042 9.29148 141.473 10.2506 141.473 12.095V12.1318C141.473 13.8287 140.023 14.9722 137.809 14.9722H134.508Z" fill="white"/>
<path d="M145 20.8558H146.364V15.8391H149.819L153.325 20.8558H155L151.287 15.5809C153.187 15.212 154.568 13.9578 154.568 11.8183V11.7814C154.568 10.767 154.223 9.86324 153.636 9.23614C152.876 8.42461 151.684 7.94507 150.199 7.94507H145V20.8558ZM146.364 14.5296V9.29148H150.095C152.047 9.29148 153.187 10.2506 153.187 11.8367V11.8736C153.187 13.5336 151.891 14.5296 150.078 14.5296H146.364Z" fill="white"/>
<path d="M163.482 20.8558C167.36 20.8558 170 17.8421 170 14.4005V14.3648C170 10.9231 167.396 7.94507 163.518 7.94507C159.64 7.94507 157 10.9588 157 14.4005V14.4361C157 17.8778 159.604 20.8558 163.482 20.8558ZM163.518 19.5541C160.605 19.5541 158.493 17.2358 158.493 14.4005V14.3648C158.493 11.5294 160.569 9.24684 163.482 9.24684C166.395 9.24684 168.507 11.5651 168.507 14.4005V14.4361C168.507 17.2715 166.431 19.5541 163.518 19.5541Z" fill="white"/>
<path fill-rule="evenodd" clip-rule="evenodd" d="M18.74 9.30491L9.80811 18.2206C8.63653 19.3901 8.63653 21.2861 9.80811 22.4556C10.9797 23.625 12.8792 23.625 14.0508 22.4556L17.8613 18.652V26.0054C17.8613 27.6593 19.2045 29 20.8613 29C22.5182 29 23.8613 27.6593 23.8613 26.0054V11.5054L23.8608 11.4768C23.875 10.6924 23.5823 9.90347 22.9826 9.30491C21.8111 8.13546 19.9116 8.13546 18.74 9.30491ZM20.7781 5.98913C19.1213 5.98913 17.7781 4.64842 17.7781 2.99456C17.7781 1.34071 19.1213 0 20.7781 0C22.435 0 23.7781 1.34071 23.7781 2.99456C23.7781 4.64842 22.435 5.98913 20.7781 5.98913Z" fill="#232935"/>
<path fill-rule="evenodd" clip-rule="evenodd" d="M5.12133 9.30488L14.0532 18.2206C15.2248 19.39 15.2248 21.2861 14.0532 22.4555C12.8816 23.625 10.9821 23.625 9.81057 22.4555L6.08306 18.7348L6.08321 26.0054C6.08321 27.6593 4.74006 29 3.0832 29C1.42635 29 0.0831968 27.6593 0.0831968 26.0054L0.0828944 12.1233C-0.152292 11.1439 0.112971 10.0692 0.878681 9.30488C2.05026 8.13543 3.94975 8.13543 5.12133 9.30488Z" fill="white"/>
<path fill-rule="evenodd" clip-rule="evenodd" d="M18.7323 9.30491L9.80042 18.2206C8.62884 19.3901 8.62884 21.2861 9.80042 22.4556C10.972 23.625 12.8715 23.625 14.0431 22.4556L17.8536 18.652V26.0054C17.8536 27.6593 19.1968 29 20.8536 29C22.5105 29 23.8536 27.6593 23.8536 26.0054V11.5054L23.8531 11.4768C23.8673 10.6924 23.5746 9.90347 22.975 9.30491C21.8034 8.13546 19.9039 8.13546 18.7323 9.30491ZM20.7704 5.98913C19.1136 5.98913 17.7704 4.64842 17.7704 2.99456C17.7704 1.34071 19.1136 0 20.7704 0C22.4273 0 23.7704 1.34071 23.7704 2.99456C23.7704 4.64842 22.4273 5.98913 20.7704 5.98913Z" fill="#232935" fill-opacity="0.2"/>
<path d="M3.08332 5.98913C4.74018 5.98913 6.08332 4.64842 6.08332 2.99456C6.08332 1.34071 4.74018 0 3.08332 0C1.42646 0 0.083313 1.34071 0.083313 2.99456C0.083313 4.64842 1.42646 5.98913 3.08332 5.98913Z" fill="white"/>
</svg>
