<svg width="604" height="1011" viewBox="0 0 604 1011" fill="none" xmlns="http://www.w3.org/2000/svg">
<path d="M802.038 256.346C804.347 -75.6959 478.006 53.966 314.547 160.302C239.972 192.537 103.495 266.015 154.196 302.052C217.572 347.097 -52.9008 320.786 -66.755 489.138C-80.6092 657.49 -36.5073 602.024 -173.397 719.875C-310.288 837.725 39.2943 1076.4 10.7522 915.576C-17.79 754.756 206.759 866.885 403.579 781.22C600.4 695.554 170.194 730.422 124.248 558.95C78.3021 387.477 799.152 671.397 802.038 256.346Z" fill="black" fill-opacity="0.1"/>
<circle cx="677.091" cy="678.834" r="147.934" transform="rotate(165 677.091 678.834)" fill="black" fill-opacity="0.1"/>
<path d="M466.745 498.982C438.592 450.855 387.219 421.064 331.465 420.534L313.97 420.368" stroke="black" stroke-opacity="0.514793" stroke-width="3"/>
<path d="M101.24 498.982C129.393 450.855 180.766 421.064 236.52 420.534L254.016 420.368" stroke="black" stroke-opacity="0.514793" stroke-width="3"/>
<path d="M318.705 307.041C345.207 307.041 366.69 285.557 366.69 259.056C366.69 232.554 345.207 211.07 318.705 211.07C292.203 211.07 270.72 232.554 270.72 259.056C270.72 285.557 292.203 307.041 318.705 307.041Z" fill="#141A32"/>
<path d="M228.861 319.292C255.363 319.292 276.847 297.809 276.847 271.307C276.847 244.806 255.363 223.322 228.861 223.322C202.36 223.322 180.876 244.806 180.876 271.307C180.876 297.809 202.36 319.292 228.861 319.292Z" fill="#141A32"/>
<path d="M339.125 315.208C353.786 315.208 365.67 303.324 365.67 288.663C365.67 274.003 353.786 262.118 339.125 262.118C324.465 262.118 312.58 274.003 312.58 288.663C312.58 303.324 324.465 315.208 339.125 315.208Z" fill="#141A32"/>
<path d="M263.573 258.034C278.234 258.034 290.118 246.15 290.118 231.489C290.118 216.829 278.234 204.944 263.573 204.944C248.913 204.944 237.028 216.829 237.028 231.489C237.028 246.15 248.913 258.034 263.573 258.034Z" fill="#141A32"/>
<path d="M289.097 457.123C307.14 457.123 321.769 443.027 321.769 425.638V359.968C321.769 342.58 307.14 328.481 289.097 328.481C271.053 328.481 256.427 342.58 256.427 359.968V425.638C256.427 443.027 271.053 457.123 289.097 457.123Z" fill="white"/>
<path d="M290.118 329.319C307.48 329.319 321.605 342.889 321.605 359.57V425.01C321.605 441.692 307.48 455.263 290.118 455.263C272.757 455.263 258.633 441.692 258.633 425.01V359.57C258.633 342.889 272.757 329.319 290.118 329.319ZM290.118 457.435C308.677 457.435 323.776 442.869 323.776 424.972V359.608C323.776 341.708 308.677 327.147 290.118 327.147C271.561 327.147 256.461 341.708 256.461 359.608V424.972C256.461 442.869 271.561 457.435 290.118 457.435Z" fill="#141A32"/>
<path opacity="0.254971" d="M321.769 404.032C313.852 403.182 303.838 398.821 295.223 394.292C305.471 392.979 314.678 388.384 321.769 381.571V404.032Z" fill="#141A32"/>
<path d="M338.784 310.104C348.559 310.104 356.481 317.874 356.481 327.46C356.481 337.047 348.559 344.816 338.784 344.816H338.104V310.104H338.784Z" fill="white"/>
<path d="M339.353 309.776C347.775 310.024 354.553 317.234 354.553 326.063C354.553 334.89 347.775 342.099 339.353 342.348V309.776ZM340.324 344.519H340.895C349.622 344.519 356.725 336.24 356.725 326.063C356.725 315.884 349.622 307.604 340.895 307.604H340.324C339.788 307.604 339.353 308.109 339.353 308.736V343.387C339.353 344.014 339.788 344.519 340.324 344.519Z" fill="#141A32"/>
<path d="M245.574 310.104H246.217V344.816H245.574C236.334 344.816 228.845 337.047 228.845 327.46C228.845 317.874 236.334 310.104 245.574 310.104Z" fill="white"/>
<path d="M245.604 309.776V342.348C237.182 342.099 230.403 334.89 230.403 326.063C230.403 317.234 237.182 310.024 245.604 309.776ZM244.062 344.519H244.633C245.171 344.519 245.604 344.014 245.604 343.387V308.736C245.604 308.109 245.171 307.604 244.633 307.604H244.062C235.332 307.604 228.232 315.884 228.232 326.063C228.232 336.24 235.332 344.519 244.062 344.519Z" fill="#141A32"/>
<path d="M272.6 273.844C273.765 273.643 275.017 273.475 276.361 273.349C282.638 292.305 300.616 305.999 321.851 305.999C322.384 305.999 322.9 305.939 323.429 305.921C324.879 311.72 332.232 312.157 338.104 311.526V345.569V348.719C338.104 362.092 332.531 374.137 323.621 382.717C316.549 389.529 307.366 394.122 297.145 395.437C295.173 395.69 293.178 395.865 291.138 395.865C265.201 395.865 244.175 374.756 244.175 348.719V345.569V315.32C258.589 306.537 269.034 291.476 272.6 273.844Z" fill="white"/>
<path d="M337.182 311.511V347.899C337.182 360.67 332.188 372.596 323.122 381.476C316.033 388.421 307.144 392.765 297.415 394.039C295.194 394.326 293.341 394.463 291.583 394.463C266.438 394.463 245.981 373.573 245.981 347.899V314.741C260.206 305.709 270.395 290.612 274.075 273.136C274.73 273.031 275.411 272.941 276.122 272.861C282.951 292.607 301.326 305.809 322.129 305.809C322.387 305.809 322.642 305.795 322.9 305.781C324.098 309.036 327.632 312.263 337.182 311.511ZM291.583 396.634C293.434 396.634 295.376 396.494 297.691 396.193C307.884 394.861 317.196 390.315 324.624 383.046C334.123 373.754 339.354 361.275 339.354 347.909V310.359C339.354 310.038 339.22 309.732 338.985 309.517C338.755 309.302 338.44 309.198 338.13 309.235C332.697 309.82 325.983 309.472 324.742 304.424C324.615 303.909 324.181 303.565 323.629 303.57C323.398 303.579 323.168 303.594 322.939 303.61C322.662 303.628 322.383 303.649 322.099 303.649C301.971 303.649 284.23 290.715 277.951 271.46C277.789 270.963 277.292 270.669 276.794 270.69C275.43 270.825 274.159 270.994 272.975 271.202C272.525 271.282 272.168 271.634 272.075 272.091C268.621 289.457 258.512 304.452 244.344 313.224C244.011 313.428 243.81 313.796 243.81 314.19V347.909C243.81 374.774 265.239 396.634 291.583 396.634Z" fill="#141A32"/>
<path d="M237.572 332.565C237.818 332.565 238.069 332.484 238.273 332.321L241.529 329.711C241.929 329.39 242.151 328.914 242.132 328.411C242.114 327.908 241.859 327.449 241.437 327.154L237.748 324.597C237.253 324.255 236.57 324.363 236.214 324.839C235.86 325.317 235.972 325.979 236.464 326.321L239.601 328.496L236.871 330.685C236.403 331.061 236.337 331.728 236.726 332.181C236.943 332.433 237.256 332.565 237.572 332.565Z" fill="#141A32"/>
<path d="M343.331 329.319H343.307H343.331ZM345.995 333.662C346.331 333.662 346.665 333.522 346.894 333.253C347.308 332.772 347.24 332.063 346.743 331.664L343.841 329.335L347.172 327.023C347.698 326.659 347.82 325.955 347.444 325.449C347.065 324.938 346.334 324.825 345.813 325.189L341.892 327.908C341.439 328.222 341.168 328.71 341.149 329.245C341.128 329.78 341.364 330.286 341.792 330.627L345.25 333.402C345.469 333.576 345.733 333.662 345.995 333.662Z" fill="#141A32"/>
<path d="M272.763 326.439C272.763 328.697 270.934 330.523 268.679 330.523C266.424 330.523 264.595 328.697 264.595 326.439C264.595 324.184 266.424 322.355 268.679 322.355C270.934 322.355 272.763 324.184 272.763 326.439Z" fill="#141A32"/>
<path d="M315.643 326.439C315.643 328.697 313.816 330.523 311.557 330.523C309.302 330.523 307.475 328.697 307.475 326.439C307.475 324.184 309.302 322.355 311.557 322.355C313.816 322.355 315.643 324.184 315.643 326.439Z" fill="#141A32"/>
<path d="M278.179 312.408C277.185 313.097 275.693 313.315 274.264 313.597C272.817 313.857 271.373 314.149 270.127 314.44C268.88 314.732 267.458 315.111 266.058 315.518C264.657 315.897 263.232 316.361 261.994 316.195C260.803 316.048 260.022 315.014 260.862 313.319C261.638 311.68 264.301 309.471 268.429 308.497C272.557 307.541 276.069 308.305 277.629 309.396C279.27 310.511 279.144 311.757 278.179 312.408Z" fill="#141A32"/>
<path d="M304.099 312.407C305.094 313.096 306.588 313.315 308.016 313.597C309.463 313.856 310.907 314.147 312.151 314.441C313.401 314.732 314.82 315.11 316.222 315.517C317.621 315.897 319.049 316.361 320.286 316.195C321.476 316.048 322.258 315.013 321.416 313.319C320.642 311.68 317.978 309.472 313.85 308.498C309.724 307.541 306.21 308.303 304.651 309.396C303.008 310.511 303.136 311.756 304.099 312.407Z" fill="#141A32"/>
<path d="M286.219 342.774H286.222L289.394 342.768C292.052 342.761 294.547 341.816 296.42 340.112C298.29 338.409 299.317 336.15 299.308 333.749C299.305 332.808 298.895 331.924 298.155 331.258C297.42 330.594 296.439 330.23 295.4 330.23H295.376C293.065 330.23 291.18 328.526 291.173 326.431L291.146 319.351C291.144 318.755 290.606 318.271 289.941 318.271H289.936C289.273 318.273 288.733 318.761 288.736 319.36L288.762 326.44C288.774 329.727 291.739 332.399 295.379 332.399H295.398C295.796 332.399 296.169 332.537 296.451 332.791C296.736 333.047 296.895 333.392 296.897 333.758C296.904 335.58 296.126 337.295 294.706 338.589C293.289 339.88 291.399 340.595 289.389 340.599L286.217 340.606C285.552 340.608 285.012 341.092 285.014 341.692C285.016 342.291 285.556 342.774 286.219 342.774Z" fill="#141A32"/>
<path d="M286.135 357.068C287.22 357.068 287.93 356.998 288.026 356.989C288.683 356.923 289.16 356.369 289.091 355.75C289.021 355.126 288.431 354.667 287.774 354.742C287.699 354.748 280.413 355.415 276.162 352.024C274.314 350.555 273.29 348.487 273.117 345.88C273.074 345.261 272.575 344.745 271.846 344.824C271.184 344.863 270.68 345.399 270.723 346.022C270.939 349.269 272.251 351.873 274.619 353.758C278.237 356.636 283.386 357.068 286.135 357.068Z" fill="#141A32"/>
<path d="M323.811 536.757V422.409H250.301V536.757H323.811Z" fill="#86CE7D"/>
<path d="M323.776 537.778H252.118V424.863H323.776V537.778ZM251.074 537.778H324.82C325.442 537.778 325.947 537.587 325.947 537.349V423.121C325.947 422.884 325.442 422.691 324.82 422.691H251.074C250.449 422.691 249.946 422.884 249.946 423.121V537.349C249.946 537.587 250.449 537.778 251.074 537.778Z" fill="#141A32"/>
<path d="M288.835 421.622L265.314 437.475C254.634 442.809 242.134 434.947 242.134 422.897V411.573C242.134 404.597 250.358 399.698 256.427 403.011C268.882 409.139 278.07 413.904 283.993 417.305C285.272 418.039 287.44 418.749 290.496 419.434L321.982 400.977C328.013 397.447 336.018 403.7 336.096 410.748V420.52C336.269 435.881 317.183 446.12 304.664 437.421L288.835 421.622Z" fill="#141A32"/>
<path d="M306.415 435.72H306.393H306.415ZM286.861 421.485L264.881 436.37C260.34 438.636 254.914 438.371 250.496 435.576C246.074 432.783 243.432 427.958 243.432 422.665V411.283C243.432 408.395 244.891 405.788 247.328 404.308C249.768 402.83 252.721 402.757 255.216 404.134L286.861 421.485ZM324.544 400.977C325.867 400.977 327.191 401.335 328.4 402.057C330.837 403.505 332.312 406.124 332.345 409.059L332.461 419.622C332.535 426.479 329.131 432.493 323.351 435.723C317.604 438.93 310.967 438.562 305.577 434.737L291.204 419.902L320.636 402.085C321.859 401.345 323.2 400.977 324.544 400.977ZM317.059 440.063C320.224 440.063 323.403 439.255 326.378 437.629C332.993 434.015 336.89 427.272 336.803 419.594L336.686 409.091C336.643 405.36 334.728 402.026 331.558 400.181C328.386 398.332 324.616 398.35 321.462 400.218L290.852 418.356L258.394 400.421C255.215 398.669 251.474 398.755 248.379 400.645C245.281 402.538 243.432 405.872 243.432 409.567V420.939C243.432 427.016 246.442 432.563 251.483 435.772C256.523 438.979 262.708 439.29 268.031 436.598L290.734 421.118L305.794 436.334L305.945 436.463C309.346 438.855 313.189 440.063 317.059 440.063Z" fill="#141A32"/>
<mask id="mask0_321_3116" style="mask-type:alpha" maskUnits="userSpaceOnUse" x="-58" y="345" width="367" height="400">
<rect x="-58" y="345.606" width="366.252" height="398.984" fill="#D9D9D9"/>
</mask>
<g mask="url(#mask0_321_3116)">
<path d="M307.47 706.461C279.294 656.305 227.88 625.258 172.081 624.706L154.571 624.532" stroke="black" stroke-opacity="0.514793" stroke-width="3"/>
<path d="M-58.3301 706.461C-30.1546 656.305 21.26 625.258 77.0587 624.706L94.5685 624.532" stroke="black" stroke-opacity="0.514793" stroke-width="3"/>
<path d="M87.3086 643.889H156.906V565.391H87.3086L87.3086 643.889Z" fill="#FFC6C6"/>
<path d="M88.4186 642.724H155.797V566.559H88.4186L88.4186 642.724ZM156.907 645.058H87.3094C86.6971 645.058 86.2002 644.537 86.2002 643.89L86.2002 565.391C86.2002 564.744 86.6971 564.223 87.3094 564.223H156.907C157.519 564.223 158.016 564.744 158.016 565.391V643.89C158.016 644.537 157.519 645.058 156.907 645.058Z" fill="#141A32"/>
<path opacity="0.254971" d="M87.3447 607.629C95.7948 606.676 106.483 601.778 115.681 596.691C104.742 595.217 94.9141 590.058 87.3447 582.41V607.629Z" fill="#141A32"/>
<path d="M71.144 507.626C61.0479 507.626 52.8662 516.246 52.8662 526.877C52.8662 537.511 61.0479 546.128 71.144 546.128H71.845V507.626H71.144Z" fill="#FFC6C6"/>
<path d="M70.7347 508.799C61.4571 509.031 53.9743 517.05 53.9743 526.877C53.9743 536.702 61.4571 544.724 70.7347 544.955V508.799ZM71.8439 547.296H71.1429C60.4544 547.296 51.7559 538.137 51.7559 526.877C51.7559 515.62 60.4544 506.458 71.1429 506.458H71.8439C72.4584 506.458 72.9531 506.981 72.9531 507.626V546.128C72.9531 546.773 72.4584 547.296 71.8439 547.296Z" fill="#141A32"/>
<path d="M173.072 507.626H172.371V546.128H173.072C183.168 546.128 191.35 537.511 191.35 526.877C191.35 516.246 183.168 507.626 173.072 507.626Z" fill="#FFC6C6"/>
<path d="M173.48 508.799V544.955C182.758 544.724 190.241 536.702 190.241 526.877C190.241 517.05 182.758 509.031 173.48 508.799ZM173.072 547.296H172.371C171.756 547.296 171.262 546.773 171.262 546.128V507.626C171.262 506.981 171.756 506.458 172.371 506.458H173.072C183.763 506.458 192.459 515.62 192.459 526.877C192.459 538.137 183.763 547.296 173.072 547.296Z" fill="#141A32"/>
<path d="M172.201 493.263L172.043 493.282C170.705 481.122 165.139 470.269 156.871 462.231C149.302 454.874 139.474 449.911 128.537 448.492C126.427 448.219 124.291 448.032 122.108 448.032C96.2011 448.032 74.8884 467.895 72.1575 493.408L71.9934 493.576C72.0688 492.251 72.1952 490.941 72.3683 489.644C72.0399 491.845 71.8447 494.142 71.8447 496.525V498.96V502.364V505.364L71.8447 539.403V542.403V545.808V548.242C71.8447 549.327 71.9135 550.415 72.0155 551.504L72.173 551.486C73.5108 563.645 79.0769 574.498 87.345 582.534C94.9144 589.894 104.742 594.854 115.679 596.273C117.789 596.546 119.925 596.735 122.108 596.735C148.015 596.735 169.328 576.872 172.059 551.359L172.223 551.191C172.15 552.516 172.021 553.827 171.848 555.121C172.176 552.923 172.372 550.626 172.372 548.242V545.808V542.403V539.403V505.364V502.364V498.96V496.525C172.372 495.441 172.303 494.352 172.201 493.263Z" fill="#FFC6C6"/>
<path d="M73.0758 550.883L73.2755 551.353C74.54 562.846 79.8044 573.615 88.0947 581.676C95.7395 589.107 105.323 593.752 115.816 595.114C118.192 595.422 120.191 595.567 122.11 595.567C147.252 595.567 168.25 576.506 170.956 551.229C170.98 551.007 171.065 550.799 171.196 550.626C171.24 549.824 171.262 549.028 171.262 548.243V496.525C171.262 495.728 171.222 494.88 171.147 493.939L170.94 493.415C169.676 481.922 164.412 471.153 156.121 463.091C148.476 455.661 138.893 451.016 128.399 449.654C126.012 449.343 124.011 449.198 122.108 449.198C96.9663 449.198 75.9665 468.26 73.26 493.539C73.2356 493.761 73.1512 493.969 73.0226 494.142C72.976 494.943 72.9538 495.74 72.9538 496.525L72.9538 548.243C72.9538 549.053 72.9937 549.923 73.0758 550.883ZM122.11 597.904C120.098 597.904 118.013 597.754 115.544 597.434C104.589 596.011 94.577 591.156 86.5928 583.394C78.0296 575.071 72.5523 563.984 71.128 552.124L70.9128 551.619C70.7952 550.376 70.7354 549.271 70.7354 548.243L70.7354 496.525C70.7354 494.231 70.915 491.854 71.2722 489.467C71.321 489.13 71.5029 488.85 71.7514 488.674C76.4878 464.538 97.3834 446.862 122.108 446.862C124.105 446.862 126.19 447.014 128.675 447.334C139.627 448.757 149.639 453.612 157.623 461.374C166.186 469.697 171.664 480.784 173.088 492.644L173.303 493.149C173.421 494.392 173.481 495.497 173.481 496.525V548.243C173.481 550.537 173.301 552.913 172.946 555.301C172.895 555.638 172.713 555.918 172.465 556.093C167.728 580.228 146.833 597.904 122.11 597.904Z" fill="#141A32"/>
<path d="M216.565 415.33C217.346 414.155 218.085 412.933 218.719 411.617C226.138 396.294 220.423 377.501 205.959 369.643C198.039 365.342 189.145 365.234 181.494 368.512C178.507 364.377 174.658 360.839 169.995 358.304C153.206 349.184 132.619 356.21 124.011 373.996C121.378 379.438 120.184 385.259 120.26 390.976C108.243 390.462 96.4648 397.182 90.6169 409.264C83.4225 424.13 87.6842 441.974 99.9123 451.64C82.2423 460.419 70.0098 479.345 70.0098 501.285V514.956C71.5006 514.545 72.9825 514.029 74.4356 513.332C84.7425 508.402 90.7412 497.572 90.4727 486.359C96.0921 487.698 102.148 487.219 107.799 484.516C112.93 482.06 116.99 478.141 119.745 473.445C126.631 485.177 140.607 490.191 152.973 485.062C152.658 489.7 153.406 494.486 155.36 499.019C159.034 507.538 166.164 513.234 174.206 515.167V501.285C174.206 495.369 173.305 489.677 171.661 484.338C176.449 481.055 180.746 476.873 184.189 471.746C199.015 477.356 215.824 470.627 223.2 455.383C229.849 441.649 226.723 425.359 216.565 415.33Z" fill="#141A32"/>
<path d="M152.975 483.894C153.206 483.894 153.439 483.971 153.632 484.12C153.938 484.359 154.107 484.744 154.082 485.146C153.769 489.709 154.559 494.34 156.369 498.532C159.584 505.991 165.634 511.439 173.097 513.661V501.285C173.097 495.637 172.258 490.06 170.605 484.7C170.452 484.197 170.636 483.646 171.056 483.359C175.945 480.006 180.06 475.87 183.284 471.071C183.572 470.643 184.096 470.473 184.564 470.645C199.028 476.125 215.207 469.325 222.213 454.853C228.449 441.967 225.818 426.064 215.806 416.183C215.402 415.785 215.338 415.138 215.655 414.661C216.523 413.355 217.182 412.222 217.732 411.087C224.862 396.359 219.351 378.235 205.448 370.683C198.143 366.713 189.566 366.316 181.913 369.594C181.447 369.788 180.914 369.638 180.61 369.22C177.589 365.035 173.846 361.71 169.485 359.341C161.649 355.084 152.716 354.306 144.33 357.154C135.902 360.012 129.038 366.183 124.998 374.526C122.516 379.66 121.294 385.188 121.369 390.959C121.371 391.28 121.251 391.588 121.032 391.812C120.814 392.037 120.519 392.172 120.213 392.142C108.34 391.635 97.0414 398.563 91.6062 409.794C84.7468 423.968 88.5203 441.172 100.578 450.703C100.89 450.948 101.057 451.348 101.017 451.757C100.977 452.163 100.74 452.518 100.387 452.694C82.6082 461.528 71.1188 480.601 71.1188 501.285V513.407C72.1393 513.07 73.0844 512.696 73.974 512.269C83.5887 507.668 89.6296 497.509 89.3634 486.387C89.3545 486.027 89.5031 485.681 89.7671 485.455C90.0356 485.223 90.3905 485.134 90.7166 485.219C96.3581 486.562 102.111 485.952 107.339 483.45C112.102 481.172 116.065 477.501 118.8 472.83C119.206 472.141 120.28 472.136 120.69 472.83C127.352 484.186 140.76 488.871 152.567 483.975L152.975 483.894ZM174.206 516.334L173.959 516.304C165.192 514.199 158.047 508.072 154.351 499.502C152.62 495.495 151.751 491.121 151.797 486.751C139.931 490.845 126.919 486.3 119.745 475.562C116.841 479.915 112.897 483.356 108.258 485.578C102.998 488.095 97.261 488.84 91.584 487.786C91.3333 499.271 84.8976 509.61 74.8924 514.397C73.4926 515.066 71.9885 515.617 70.2914 516.084C69.9541 516.18 69.6059 516.098 69.3308 515.879C69.0601 515.659 68.9004 515.318 68.9004 514.956V501.285C68.9004 480.326 80.2078 460.951 97.8512 451.406C86.0401 440.997 82.5483 423.36 89.6296 408.734C95.2556 397.107 106.674 389.779 118.982 389.779L119.153 389.782C119.255 384.118 120.584 378.503 123.024 373.466C127.33 364.563 134.657 357.981 143.649 354.93C152.607 351.89 162.137 352.722 170.503 357.266C174.913 359.661 178.729 362.97 181.859 367.106C189.912 363.925 198.833 364.458 206.466 368.606C221.45 376.744 227.391 396.277 219.708 412.147C219.231 413.133 218.683 414.112 218.009 415.176C228.167 425.802 230.727 442.403 224.187 455.916C216.804 471.173 199.9 478.464 184.606 473.132C181.458 477.641 177.549 481.571 172.968 484.826C174.525 490.158 175.315 495.691 175.315 501.285V515.166C175.315 515.521 175.162 515.858 174.896 516.077C174.7 516.246 174.454 516.334 174.206 516.334Z" fill="#141A32"/>
<path d="M139.687 522.797C139.687 525.05 141.421 526.877 143.56 526.877C145.701 526.877 147.436 525.05 147.436 522.797C147.436 520.543 145.701 518.715 143.56 518.715C141.421 518.715 139.687 520.543 139.687 522.797Z" fill="#141A32"/>
<path d="M94.4766 522.797C94.4766 525.05 96.2114 526.877 98.35 526.877C100.491 526.877 102.226 525.05 102.226 522.797C102.226 520.543 100.491 518.715 98.35 518.715C96.2114 518.715 94.4766 520.543 94.4766 522.797Z" fill="#141A32"/>
<path d="M181.978 532.354C181.727 532.354 181.476 532.265 181.27 532.085L177.734 528.994C177.317 528.627 177.093 528.094 177.11 527.527C177.128 526.959 177.392 526.443 177.831 526.108L181.84 523.08C182.333 522.702 183.027 522.821 183.389 523.351C183.746 523.872 183.63 524.604 183.131 524.98L179.637 527.622L182.685 530.286C183.158 530.7 183.222 531.438 182.832 531.931C182.612 532.211 182.295 532.354 181.978 532.354Z" fill="#141A32"/>
<path d="M65.6656 528.008H65.6878H65.6656ZM62.8149 532.354C62.4954 532.354 62.1804 532.211 61.9608 531.931C61.5681 531.438 61.6347 530.7 62.1072 530.286L65.1554 527.62L61.6591 524.98C61.1622 524.604 61.0468 523.872 61.404 523.351C61.7611 522.821 62.4577 522.702 62.9524 523.08L66.959 526.108C67.4004 526.443 67.6644 526.961 67.68 527.529C67.6999 528.097 67.4736 528.63 67.0544 528.994L63.5226 532.085C63.3185 532.265 63.0656 532.354 62.8149 532.354Z" fill="#141A32"/>
<path d="M129.444 499.927C130.52 500.822 132.137 501.107 133.683 501.474C135.247 501.811 136.811 502.189 138.16 502.57C139.511 502.948 141.049 503.441 142.564 503.972C144.079 504.465 145.623 505.068 146.963 504.853C148.252 504.661 149.097 503.315 148.187 501.112C147.347 498.981 144.465 496.107 139.997 494.841C135.531 493.595 131.729 494.588 130.041 496.009C128.264 497.457 128.401 499.081 129.444 499.927Z" fill="#141A32"/>
<path d="M112.329 499.742C111.264 500.628 109.669 500.908 108.14 501.27C106.594 501.602 105.05 501.976 103.719 502.352C102.383 502.728 100.866 503.214 99.3686 503.738C97.8711 504.224 96.347 504.82 95.0226 504.607C93.7492 504.42 92.9129 503.091 93.8136 500.913C94.6433 498.808 97.4918 495.969 101.902 494.716C106.315 493.49 110.07 494.469 111.739 495.873C113.493 497.303 113.358 498.906 112.329 499.742Z" fill="#141A32"/>
<path d="M142.334 544.373C141.145 543.317 139.41 543.333 138.15 544.296C135.856 546.048 130.951 549.056 124.402 548.969C122.794 548.95 121.762 550.799 122.279 552.402C123.417 555.927 126.875 561.57 135.685 558.446C146.422 554.64 145.433 547.126 142.334 544.373Z" fill="#F9F7F3"/>
<path d="M124.375 550.138C123.956 550.138 123.685 550.399 123.534 550.619C123.257 551.019 123.179 551.561 123.33 552.026C124.364 555.234 127.297 560.18 135.332 557.339C139.891 555.724 142.695 553.21 143.227 550.264C143.638 547.993 142.617 546.152 141.617 545.264C140.838 544.579 139.678 544.572 138.802 545.24C136.352 547.11 131.17 550.236 124.388 550.138H124.375ZM130.917 560.531C124.331 560.531 121.895 554.844 121.229 552.776C120.846 551.589 121.034 550.266 121.74 549.248C122.378 548.315 123.35 547.776 124.415 547.801L124.679 547.804C130.751 547.804 135.308 545.023 137.497 543.35C139.208 542.042 141.49 542.098 143.048 543.479V543.481C144.965 545.182 145.89 548.016 145.406 550.701C145.007 552.909 143.261 556.996 136.04 559.554C134.103 560.241 132.404 560.531 130.917 560.531Z" fill="#141A32"/>
<path d="M95.1847 517.08C94.9629 517.08 94.7432 517.009 94.5524 516.869C94.0555 516.5 93.9246 515.79 94.2685 515.259C95.1647 513.878 98.0443 511.748 102.514 513.61C103.085 513.846 103.364 514.526 103.14 515.126C102.916 515.724 102.27 516.023 101.7 515.783C97.8069 514.171 96.1608 516.488 96.092 516.591C95.8746 516.907 95.5308 517.08 95.1847 517.08Z" fill="#141A32"/>
<path d="M140.1 515.399C139.878 515.399 139.658 515.329 139.467 515.189C138.971 514.822 138.842 514.11 139.184 513.579C140.078 512.201 142.957 510.072 147.432 511.93C148 512.166 148.279 512.846 148.055 513.446C147.829 514.047 147.183 514.348 146.615 514.103C142.724 512.493 141.076 514.808 141.007 514.911C140.79 515.229 140.446 515.399 140.1 515.399Z" fill="#141A32"/>
<path d="M125.245 539.476H125.242L122.019 539.466C116.506 539.448 112.036 534.686 112.054 528.851C112.063 526.606 113.793 524.786 115.914 524.786H115.936C117.103 524.786 118.201 524.307 119.029 523.433C119.863 522.557 120.322 521.388 120.326 520.145L120.353 511.715C120.355 511.072 120.85 510.551 121.462 510.551H121.464C122.077 510.554 122.574 511.079 122.571 511.724L122.545 520.15C122.54 522.015 121.848 523.767 120.597 525.085C119.346 526.403 117.629 527.225 115.918 527.122H115.914C115.011 527.122 114.277 527.9 114.272 528.861C114.259 533.405 117.737 537.116 122.024 537.13L125.247 537.139C125.859 537.141 126.356 537.667 126.354 538.31C126.352 538.955 125.855 539.476 125.245 539.476Z" fill="#141A32"/>
<path d="M115.15 583.539C115.15 583.539 118.181 580.368 123.876 583.875Z" fill="#F89A6E"/>
<path d="M123.876 585.046L123.315 584.887C118.501 581.917 116.025 584.273 115.923 584.378C115.483 584.81 114.78 584.803 114.361 584.343C113.939 583.885 113.939 583.158 114.37 582.709C114.518 582.553 118.068 578.95 124.437 582.868C124.967 583.195 125.145 583.91 124.834 584.469C124.628 584.838 124.255 585.046 123.876 585.046Z" fill="#141A32"/>
<path d="M76.7754 610.013L76.7754 797.812V742.822C165.819 742.822 76.7754 742.822 165.819 742.822V903.979L165.819 691.645V610.013C137.961 641.461 104.631 641.461 76.7754 610.013Z" fill="#FFC76C"/>
<path d="M121.297 960.862C136.347 960.862 151.306 968.402 164.705 982.7L164.705 612.924C151.306 627.222 136.347 634.759 121.297 634.759C106.247 634.759 91.2884 627.222 77.8898 612.924L77.8898 982.7C91.2884 968.402 106.247 960.862 121.297 960.862ZM165.819 986.772C165.514 986.772 165.215 986.639 164.999 986.396C151.547 971.211 136.436 963.185 121.297 963.185C106.158 963.185 91.0477 971.211 77.5956 986.396C77.2814 986.749 76.7933 986.867 76.3721 986.692C75.9419 986.516 75.6611 986.089 75.6611 985.61L75.6611 610.013C75.6611 609.534 75.9419 609.105 76.3721 608.93C76.7933 608.754 77.2814 608.875 77.5956 609.225C91.0477 624.409 106.158 632.436 121.297 632.436C136.436 632.436 151.547 624.409 164.999 609.225C165.313 608.875 165.801 608.754 166.222 608.93C166.653 609.105 166.931 609.534 166.931 610.013L166.931 985.61C166.931 986.089 166.653 986.516 166.222 986.692L165.819 986.772Z" fill="#141A32"/>
<path d="M165.819 610.013C137.963 625.355 104.631 625.355 76.7754 610.013V624.584C104.631 639.925 137.963 639.925 165.819 624.584V610.013Z" fill="#FDB032"/>
<path d="M77.8898 623.88C105.122 638.62 137.473 638.62 164.705 623.88L164.707 611.918C137.388 626.284 105.209 626.282 77.8898 611.92V623.88ZM121.297 637.258C105.826 637.258 90.3591 633.379 76.2562 625.61C75.8907 625.408 75.6611 625.013 75.6611 624.581V610.013C75.6611 609.606 75.8662 609.228 76.2027 609.016C76.537 608.812 76.9515 608.798 77.297 608.986C104.85 624.163 137.745 624.163 165.298 608.986C165.643 608.798 166.06 608.812 166.392 609.016C166.728 609.228 166.933 609.604 166.933 610.013L166.936 624.581C166.936 625.013 166.706 625.408 166.34 625.61C152.24 633.376 136.764 637.258 121.297 637.258Z" fill="#141A32"/>
</g>
<mask id="mask1_321_3116" style="mask-type:alpha" maskUnits="userSpaceOnUse" x="250" y="296" width="367" height="400">
<rect x="250.748" y="296.95" width="366.252" height="398.984" fill="#D9D9D9"/>
</mask>
<g mask="url(#mask1_321_3116)">
<path d="M616.548 660.758C588.372 611.606 536.958 581.18 481.159 580.639L463.649 580.469" stroke="black" stroke-opacity="0.514793" stroke-width="3"/>
<path d="M256 650.444C284.175 601.292 330.339 581.18 386.137 580.639L403.647 580.469" stroke="black" stroke-opacity="0.514793" stroke-width="3"/>
<path d="M385.425 389.443C395.746 379.338 409.143 372.524 424.055 370.577C426.931 370.2 429.842 369.941 432.817 369.941C470.662 369.941 501.341 401.254 501.341 439.879V444.556V481.554L501.568 481.542C524.174 481.542 542.499 500.248 542.499 523.32C542.499 546.394 524.174 565.101 501.568 565.101C478.961 565.101 460.634 546.394 460.634 523.32C460.634 519.361 461.209 515.545 462.218 511.916L380.863 511.662C371.808 511.632 364.473 504.148 364.446 494.906L364.297 444.556V439.879C364.297 420.042 372.424 402.171 385.425 389.443Z" fill="#141A32"/>
<path d="M501.313 481.646C523.175 481.646 540.971 499.812 540.971 522.141C540.971 544.471 523.175 562.638 501.299 562.638C479.425 562.638 461.627 544.471 461.627 522.141C461.627 518.475 462.146 514.755 463.166 511.089C463.267 510.717 463.193 510.318 462.968 510.01C462.741 509.702 462.385 509.523 462.008 509.52L380.764 509.267C372.411 509.24 365.598 502.284 365.571 493.758L365.419 438.805C365.419 419.987 372.783 402.412 386.147 389.321C396.603 379.083 409.707 372.684 424.044 370.811C427.31 370.385 430.043 370.185 432.643 370.185C469.71 370.185 499.866 400.969 499.866 438.805V480.428C499.866 481.107 500.404 481.659 501.072 481.659L501.313 481.646ZM501.299 565.101C524.502 565.101 543.383 545.83 543.383 522.141C543.383 498.79 525.03 479.726 502.278 479.197V438.805C502.278 399.61 471.039 367.723 432.643 367.723C429.937 367.723 427.11 367.928 423.738 368.368C408.885 370.308 395.308 376.939 384.481 387.546C370.631 401.105 363.007 419.307 363.007 438.805V443.476L363.159 493.767C363.19 503.638 371.082 511.697 380.754 511.729L460.44 511.977C459.628 515.356 459.215 518.768 459.215 522.141C459.215 545.83 478.094 565.101 501.299 565.101Z" fill="#141A32"/>
<path d="M397.779 591.713H469.495V511.875H397.779V591.713Z" fill="white"/>
<path d="M469.232 589.254H398.042V512.117H469.232V589.254ZM396.824 591.713H470.45C471.122 591.713 471.668 591.163 471.668 590.484V510.887C471.668 510.208 471.122 509.658 470.45 509.658H396.824C396.152 509.658 395.606 510.208 395.606 510.887V590.484C395.606 591.163 396.152 591.713 396.824 591.713Z" fill="#141A32"/>
<path opacity="0.254971" d="M469.495 556.229C460.423 555.224 448.946 550.057 439.07 544.689C450.815 543.133 461.368 537.689 469.495 529.617V556.229Z" fill="#141A32"/>
<path d="M485.431 454.214C495.833 454.214 504.266 463.151 504.266 474.175C504.266 485.199 495.833 494.133 485.431 494.133H484.707V454.214H485.431Z" fill="white"/>
<path d="M487.059 454.501C496.488 454.758 504.088 462.986 504.088 473.065C504.088 483.141 496.488 491.369 487.059 491.629V454.501ZM485.883 494.133H486.598C497.539 494.133 506.439 484.682 506.439 473.065C506.439 461.448 497.539 451.997 486.598 451.997H485.883C485.232 451.997 484.707 452.553 484.707 453.245V492.885C484.707 493.574 485.232 494.133 485.883 494.133Z" fill="#141A32"/>
<path d="M381.843 458.65H382.566V498.569H381.843C371.439 498.569 363.008 489.635 363.008 478.611C363.008 467.587 371.439 458.65 381.843 458.65Z" fill="white"/>
<path d="M380.215 458.937V496.064C370.785 495.805 363.186 487.576 363.186 477.5C363.186 467.422 370.785 459.194 380.215 458.937ZM380.674 498.569H381.391C382.042 498.569 382.566 498.009 382.566 497.32V457.681C382.566 456.989 382.042 456.432 381.391 456.432H380.674C369.734 456.432 360.834 465.884 360.834 477.5C360.834 489.117 369.734 498.569 380.674 498.569Z" fill="white"/>
<path d="M434.008 396.554C437.121 424.025 457.107 447.095 484.707 455.243V485.757V489.14V492.65V494.866C484.707 497.324 484.504 499.689 484.165 501.959C484.346 500.624 484.478 499.274 484.554 497.906L484.437 498.021C481.763 524.487 459.553 545.141 432.55 545.141C430.285 545.141 428.07 544.945 425.881 544.664C414.529 543.201 404.331 538.09 396.477 530.504C387.832 522.156 382.018 510.865 380.687 498.214L380.57 498.229C380.463 497.106 380.393 495.984 380.393 494.866V492.65V489.14V485.757V456.009C409.49 448.673 430.787 424.979 434.008 396.554Z" fill="white"/>
<path d="M483.537 498.461L483.346 498.961C480.701 525.16 458.95 544.917 432.751 544.917C430.774 544.917 428.704 544.768 426.243 544.453C415.396 543.053 405.481 538.275 397.569 530.631C388.899 522.261 383.433 511.078 382.177 499.152L382.019 498.661C381.936 497.664 381.893 496.771 381.893 495.938V458.091C408.302 451.074 428.518 430.282 434.2 404.972C439.635 429.459 458.358 449.509 483.611 457.288V495.938C483.611 496.768 483.584 497.611 483.537 498.461ZM432.751 547.359C458.575 547.359 480.27 529.007 485.029 503.953C485.242 503.768 485.394 503.509 485.437 503.206C485.807 500.744 485.995 498.299 485.995 495.938V456.374C485.995 455.829 485.642 455.351 485.132 455.202C457.969 447.176 438.442 424.58 435.39 397.633C435.321 397.018 434.811 396.554 434.205 396.554C433.599 396.554 433.089 397.018 433.02 397.633C429.88 425.371 408.74 448.805 380.417 455.954C379.885 456.088 379.508 456.577 379.508 457.141V495.938C379.508 496.993 379.57 498.131 379.689 499.413L379.866 499.938C381.282 512.245 386.977 523.761 395.933 532.409C404.217 540.41 414.592 545.413 425.945 546.875C428.508 547.202 430.671 547.359 432.751 547.359Z" fill="#141A32"/>
<path d="M415.165 469.738C415.165 472.187 413.22 474.174 410.82 474.174C408.42 474.174 406.472 472.187 406.472 469.738C406.472 467.29 408.42 465.303 410.82 465.303C413.22 465.303 415.165 467.29 415.165 469.738Z" fill="#141A32"/>
<path d="M462.975 469.738C462.975 472.187 461.029 474.174 458.627 474.174C456.227 474.174 454.282 472.187 454.282 469.738C454.282 467.29 456.227 465.303 458.627 465.303C461.029 465.303 462.975 467.29 462.975 469.738Z" fill="#141A32"/>
<path d="M373.346 483.045C373.607 483.045 373.862 482.96 374.077 482.787L377.583 479.926C378.006 479.58 378.239 479.071 378.218 478.53C378.196 477.988 377.928 477.499 377.478 477.185L373.511 474.385C372.997 474.025 372.286 474.135 371.914 474.641C371.546 475.146 371.665 475.846 372.177 476.21L375.601 478.626L372.618 481.06C372.131 481.455 372.065 482.163 372.469 482.641C372.693 482.908 373.02 483.045 373.346 483.045Z" fill="#141A32"/>
<path d="M493.925 478.609C494.254 478.609 494.581 478.472 494.805 478.205C495.209 477.727 495.143 477.02 494.656 476.624L491.671 474.188L495.095 471.774C495.609 471.411 495.728 470.71 495.358 470.207C494.99 469.7 494.275 469.59 493.765 469.949L489.788 472.753C489.343 473.066 489.073 473.555 489.055 474.096C489.034 474.637 489.265 475.145 489.69 475.491L493.197 478.351C493.411 478.524 493.667 478.609 493.925 478.609Z" fill="#141A32"/>
<path d="M420.847 449.027C419.672 449.961 417.906 450.257 416.215 450.642C414.505 450.993 412.796 451.388 411.325 451.786C409.848 452.181 408.17 452.694 406.514 453.246C404.857 453.76 403.171 454.393 401.707 454.167C400.298 453.968 399.375 452.563 400.368 450.262C401.287 448.037 404.436 445.04 409.317 443.717C414.198 442.418 418.351 443.456 420.195 444.939C422.138 446.45 421.987 448.143 420.847 449.027Z" fill="#F5F3F0"/>
<path d="M412.56 443.384C415.258 443.384 417.287 444.148 418.202 444.879C418.847 445.376 419.207 445.893 419.204 446.316C419.204 446.605 419.021 446.808 418.865 446.929L418.855 446.936C418.056 447.564 416.761 447.846 415.387 448.143L414.782 448.279C413.096 448.62 411.387 449.015 409.914 449.406C408.438 449.799 406.756 450.308 405.1 450.857L404.524 451.035C403.185 451.458 401.923 451.853 400.938 451.708C400.665 451.668 400.482 451.554 400.38 451.371C400.177 451.01 400.248 450.35 400.573 449.606C401.243 447.992 403.919 445.164 408.577 443.915C410.01 443.537 411.352 443.384 412.56 443.384ZM401.389 454.214C402.677 454.214 403.994 453.799 405.273 453.396L405.859 453.211C407.488 452.672 409.12 452.175 410.554 451.797C411.982 451.416 413.644 451.033 415.303 450.696L415.918 450.561C417.501 450.214 419.137 449.858 420.385 448.882C421.211 448.244 421.685 447.312 421.685 446.316C421.687 445.463 421.35 444.18 419.735 442.936C417.627 441.253 413.145 440.158 407.937 441.527C402.734 442.924 399.343 446.106 398.289 448.642C397.463 450.531 397.793 451.829 398.215 452.578C398.693 453.436 399.557 454.009 400.578 454.153C400.846 454.195 401.117 454.214 401.389 454.214Z" fill="#141A32"/>
<path d="M448.517 449.027C449.576 449.962 451.164 450.257 452.684 450.641C454.224 450.992 455.763 451.387 457.087 451.784C458.415 452.181 459.925 452.694 461.417 453.247C462.907 453.762 464.425 454.393 465.743 454.167C467.01 453.967 467.842 452.563 466.946 450.262C466.121 448.038 463.285 445.04 458.894 443.718C454.502 442.418 450.763 443.454 449.104 444.937C447.355 446.449 447.49 448.143 448.517 449.027Z" fill="#F5F3F0"/>
<path d="M454.722 443.409C455.928 443.409 457.267 443.561 458.701 443.941C463.337 445.185 466.01 448.002 466.669 449.588C467 450.345 467.073 451 466.872 451.357C466.769 451.537 466.589 451.647 466.336 451.682C465.368 451.831 464.026 451.419 462.748 451.015L462.151 450.83C460.519 450.29 458.839 449.783 457.367 449.386C455.895 448.996 454.188 448.607 452.48 448.255L451.898 448.127C450.529 447.83 449.236 447.55 448.446 446.926L448.433 446.916C448.21 446.748 448.097 446.546 448.097 446.319C448.097 445.904 448.456 445.389 449.08 444.907C450.003 444.171 452.031 443.409 454.722 443.409ZM465.882 454.214C466.155 454.214 466.428 454.194 466.697 454.154C467.712 454.012 468.577 453.435 469.061 452.578C469.485 451.824 469.811 450.523 468.978 448.614C467.93 446.099 464.54 442.922 459.348 441.528C454.137 440.157 449.657 441.253 447.528 442.944C445.926 444.181 445.587 445.464 445.59 446.321C445.59 447.315 446.066 448.25 446.894 448.889C448.142 449.871 449.78 450.225 451.367 450.57L451.954 450.7C453.633 451.04 455.291 451.422 456.72 451.801C458.149 452.184 459.779 452.676 461.386 453.208L461.993 453.398C463.272 453.8 464.586 454.214 465.882 454.214Z" fill="#141A32"/>
<path d="M410.889 488.374C412.165 487.188 414.028 487.206 415.377 488.288C417.839 490.258 423.101 493.639 430.129 493.545C431.854 493.521 432.96 495.598 432.406 497.401C431.184 501.367 427.475 507.711 418.021 504.2C406.503 499.92 407.566 491.47 410.889 488.374Z" fill="#F9F7F3"/>
<path d="M428.996 493.77C429.45 493.77 429.736 494.059 429.898 494.302C430.194 494.748 430.277 495.345 430.117 495.862C429.017 499.397 425.897 504.859 417.325 501.72C412.469 499.935 409.482 497.165 408.914 493.916C408.479 491.412 409.567 489.382 410.631 488.406C411.461 487.646 412.699 487.633 413.636 488.375C416.205 490.406 421.545 493.773 428.674 493.773L428.996 493.77ZM422.029 505.222C429.041 505.222 431.632 498.96 432.342 496.684C432.751 495.373 432.549 493.921 431.802 492.8C431.118 491.775 430.096 491.212 428.956 491.21L428.674 491.212C422.208 491.212 417.351 488.148 415.016 486.302C413.202 484.865 410.77 484.922 409.116 486.45C407.076 488.322 406.092 491.44 406.606 494.392C407.031 496.827 408.892 501.325 416.578 504.144C418.639 504.902 420.448 505.222 422.029 505.222Z" fill="#141A32"/>
<path d="M416.335 461.126C420.383 461.126 423.675 464.585 423.675 468.841V469.926C423.675 477.017 418.186 482.787 411.442 482.787H404.257C395.993 482.787 389.268 475.717 389.268 467.027C389.268 463.773 391.785 461.126 394.879 461.126H416.335ZM404.257 485.263H411.442C419.486 485.263 426.03 478.384 426.03 469.926V468.841C426.03 463.223 421.683 458.65 416.335 458.65H394.879C390.487 458.65 386.913 462.409 386.913 467.027C386.913 477.082 394.693 485.263 404.257 485.263Z" fill="#5C8AFF"/>
<path d="M474.567 461.126C477.659 461.126 480.178 463.773 480.178 467.027C480.178 475.717 473.453 482.787 465.188 482.787H458.006C451.259 482.787 445.77 477.017 445.77 469.926V468.841C445.77 464.585 449.065 461.126 453.113 461.126H474.567ZM458.006 485.263H465.188C474.753 485.263 482.533 477.082 482.533 467.027C482.533 462.409 478.959 458.65 474.567 458.65H453.113C447.765 458.65 443.416 463.223 443.416 468.841V469.926C443.416 478.384 449.962 485.263 458.006 485.263Z" fill="#5C8AFF"/>
<path d="M444.349 469.735C444.763 469.735 445.17 469.493 445.405 469.048C445.764 468.373 445.581 467.481 444.999 467.065C432.408 458.037 424.304 467.178 424.219 467.27C423.736 467.833 423.736 468.748 424.217 469.311C424.7 469.879 425.481 469.879 425.966 469.319C426.241 469.005 432.834 461.726 443.703 469.521L444.349 469.735Z" fill="#5C8AFF"/>
<path d="M429.478 489.698H429.529L433.596 489.538C440.482 489.264 445.856 483.63 445.579 476.97C445.469 474.445 443.244 472.484 440.643 472.572C439.185 472.673 437.684 472.119 436.57 471.128C435.457 470.136 434.812 468.785 434.751 467.322L434.341 457.612C434.31 456.935 433.737 456.417 433.013 456.432C432.312 456.462 431.764 457.033 431.792 457.716L432.203 467.423C432.292 469.542 433.23 471.5 434.843 472.939C436.458 474.376 438.555 475.09 440.747 475.036C441.929 474.952 442.984 475.901 443.03 477.071C443.255 482.371 438.973 486.86 433.492 487.074L429.425 487.234C428.722 487.264 428.176 487.835 428.204 488.515C428.232 489.178 428.798 489.698 429.478 489.698Z" fill="#141A32"/>
<path d="M484.707 784.655L382.567 784.653L391.053 567.318L433.102 576.181L473.302 567.318L484.707 784.655Z" fill="#FFEC92"/>
<path d="M482.226 784.417H382.859L391.219 570.044L431.77 578.602L432.272 578.6L470.993 570.053L482.226 784.417ZM381.603 786.873H483.499C483.833 786.873 484.149 786.733 484.379 786.487C484.604 786.245 484.724 785.915 484.705 785.579L473.327 568.482C473.31 568.123 473.136 567.789 472.856 567.57C472.576 567.349 472.211 567.271 471.866 567.346L432.011 576.145L390.313 567.345C389.97 567.275 389.605 567.357 389.325 567.581C389.045 567.801 388.873 568.138 388.859 568.499L380.394 785.596C380.383 785.93 380.501 786.254 380.731 786.495C380.958 786.736 381.274 786.873 381.603 786.873Z" fill="#141A32"/>
<path d="M476.759 560.665L478.185 606.944C478.307 610.929 473.751 613.157 470.816 610.547L433.168 577.038C431.512 575.562 429.054 575.546 427.378 577.002L390.986 608.614C388.131 611.093 383.755 609.073 383.66 605.235L382.568 561.018C382.486 557.746 385.681 555.447 388.648 556.644L428.599 572.764C429.664 573.194 430.848 573.186 431.904 572.744L470.631 556.571C473.504 555.37 476.661 557.479 476.759 560.665Z" fill="#141A32"/>
<path d="M476.449 561.952L477.868 607.95C477.91 609.291 477.228 610.434 476.048 611.011C474.868 611.587 473.573 611.407 472.583 610.529L435.062 577.222C432.928 575.332 429.819 575.312 427.672 577.176L391.401 608.596C390.435 609.43 389.176 609.61 388.028 609.085C386.88 608.557 386.178 607.471 386.146 606.182L385.058 562.233C385.03 561.115 385.526 560.108 386.42 559.468C387.308 558.828 388.399 558.692 389.417 559.104L429.238 575.125C430.603 575.673 432.099 575.663 433.453 575.097L472.052 559.024C473.033 558.613 474.109 558.721 474.995 559.312C475.884 559.902 476.414 560.865 476.449 561.955V561.952ZM474.654 613.891C475.483 613.891 476.322 613.702 477.116 613.315C479.187 612.301 480.427 610.218 480.358 607.871L478.938 561.874V561.871C478.876 559.967 477.91 558.21 476.352 557.172C474.796 556.131 472.831 555.94 471.114 556.662L432.517 572.738C431.758 573.052 430.916 573.059 430.147 572.751L390.326 556.726C388.548 556.014 386.552 556.254 384.991 557.376C383.425 558.501 382.518 560.337 382.568 562.297L383.656 606.246C383.713 608.506 384.996 610.486 387.01 611.411C389.021 612.329 391.319 612.004 393.01 610.544L429.278 579.125C430.488 578.079 432.233 578.092 433.431 579.15L470.954 612.457C472.017 613.403 473.324 613.891 474.654 613.891Z" fill="#141A32"/>
<path d="M434.724 590.605C434.724 592.442 433.264 593.931 431.464 593.931C429.663 593.931 428.204 592.442 428.204 590.605C428.204 588.768 429.663 587.278 431.464 587.278C433.264 587.278 434.724 588.768 434.724 590.605Z" fill="#F5F3F0"/>
<path d="M430.377 589.743C431.445 589.743 432.309 590.626 432.309 591.712C432.309 592.801 431.445 593.684 430.377 593.684C429.312 593.684 428.446 592.801 428.446 591.712C428.446 590.626 429.312 589.743 430.377 589.743ZM430.377 596.149C432.775 596.149 434.724 594.16 434.724 591.712C434.724 589.267 432.775 587.278 430.377 587.278C427.979 587.278 426.031 589.267 426.031 591.712C426.031 594.16 427.979 596.149 430.377 596.149Z" fill="#141A32"/>
<path d="M434.724 621.652C434.724 623.489 433.264 624.979 431.464 624.979C429.663 624.979 428.204 623.489 428.204 621.652C428.204 619.815 429.663 618.326 431.464 618.326C433.264 618.326 434.724 619.815 434.724 621.652Z" fill="#F5F3F0"/>
<path d="M430.377 620.79C431.445 620.79 432.309 621.675 432.309 622.761C432.309 623.851 431.445 624.733 430.377 624.733C429.312 624.733 428.446 623.851 428.446 622.761C428.446 621.675 429.312 620.79 430.377 620.79ZM430.377 627.197C432.775 627.197 434.724 625.206 434.724 622.761C434.724 620.317 432.775 618.326 430.377 618.326C427.979 618.326 426.031 620.317 426.031 622.761C426.031 625.206 427.979 627.197 430.377 627.197Z" fill="#141A32"/>
</g>
</svg>
