<svg width="565" height="573" viewBox="0 0 565 573" fill="none" xmlns="http://www.w3.org/2000/svg">
<mask id="mask0_176_1030" style="mask-type:alpha" maskUnits="userSpaceOnUse" x="0" y="0" width="565" height="573">
<path d="M565 0H0V573H565V0Z" fill="white"/>
</mask>
<g mask="url(#mask0_176_1030)">
<path opacity="0.447027" fill-rule="evenodd" clip-rule="evenodd" d="M211.452 482.239C246.684 477.596 312.036 476.545 348.633 482.239C360.251 484.046 371.266 486.585 381.679 489.854L377.664 498.145H386.919L383.133 490.317C388.976 492.199 394.626 494.315 400.085 496.663L400.801 498.145L401.271 497.177C409.217 500.662 416.753 504.645 423.879 509.125L426.252 514.026L427.492 511.463C434.518 516.14 441.129 521.32 447.325 527.004L444.762 532.298L452.83 532.297C454.863 534.345 456.847 536.452 458.783 538.617L451.703 538.62L456.33 548.18L460.188 540.209C468.989 550.308 476.763 561.655 483.508 574.25L483.507 591.042L477.154 591.045L481.781 600.605L483.507 597.033L483.508 619.044L394.744 616.623L394.055 616.08L398.487 606.927H389.233L393.422 615.582L380.911 605.727V616.623H142.285V605.727L130.999 614.615L134.725 606.927H125.47L129.689 615.648L128.452 616.623H70.8126L70.8115 616.485L79.1955 616.486L74.5681 606.927L70.8115 614.684V594.023L72.2544 591.045L70.8115 591.042L70.8126 574.25C84.2116 554.901 97.0022 539.386 109.184 527.704L106.96 532.298H116.215L112.495 524.609C115.942 521.473 119.34 518.649 122.688 516.137C125.485 514.039 128.45 511.775 131.793 509.433L132.862 508.691C137.899 505.226 143.801 501.615 151.237 498.143L160.175 498.145L158.632 494.956C162.25 493.519 166.188 492.123 170.496 490.791L174.058 498.145L178.685 488.585L178.222 488.584C187.6 486.112 198.542 483.94 211.452 482.239ZM472.526 606.927H463.271L467.899 616.486L472.526 606.927ZM449.389 606.927L444.762 616.486H454.016L449.389 606.927ZM435.507 606.927H426.252L430.879 616.486L435.507 606.927ZM412.37 606.927L407.742 616.486H416.997L412.37 606.927ZM375.35 606.927L370.723 616.486H379.978L375.35 606.927ZM361.468 606.927H352.213L356.841 616.486L361.468 606.927ZM338.331 606.927L333.704 616.486H342.958L338.331 606.927ZM322.135 606.927H312.88L317.508 616.486L322.135 606.927ZM298.998 606.927L294.37 616.486H303.625L298.998 606.927ZM285.116 606.927H275.861L280.488 616.486L285.116 606.927ZM261.979 606.927L257.351 616.486H266.606L261.979 606.927ZM248.096 606.927H238.841L243.469 616.486L248.096 606.927ZM224.959 606.927L220.332 616.486H229.587L224.959 606.927ZM211.077 606.927H201.822L206.45 616.486L211.077 606.927ZM187.94 606.927L183.312 616.486H192.567L187.94 606.927ZM171.744 606.927H162.489L167.116 616.486L171.744 606.927ZM148.607 606.927L143.979 616.486H153.234L148.607 606.927ZM111.587 606.927L106.96 616.486H116.215L111.587 606.927ZM97.7052 606.927H88.4504L93.0778 616.486L97.7052 606.927ZM298.998 591.045H289.743L294.37 600.605L298.998 591.045ZM463.271 591.045L458.644 600.605H467.899L463.271 591.045ZM449.389 591.045H440.134L444.762 600.605L449.389 591.045ZM426.252 591.045L421.624 600.605H430.879L426.252 591.045ZM410.056 591.045H400.801L405.428 600.605L410.056 591.045ZM386.919 591.045L382.291 600.605H391.546L386.919 591.045ZM373.037 591.045H363.782L368.409 600.605L373.037 591.045ZM349.9 591.045L345.272 600.605H354.527L349.9 591.045ZM336.017 591.045H326.762L331.39 600.605L336.017 591.045ZM312.88 591.045L308.253 600.605H317.508L312.88 591.045ZM273.547 591.045L268.92 600.605H278.175L273.547 591.045ZM259.665 591.045H250.41L255.037 600.605L259.665 591.045ZM236.528 591.045L231.9 600.605H241.155L236.528 591.045ZM222.645 591.045H213.391L218.018 600.605L222.645 591.045ZM199.508 591.045L194.881 600.605H204.136L199.508 591.045ZM185.626 591.045H176.371L180.999 600.605L185.626 591.045ZM162.489 591.045L157.862 600.605H167.116L162.489 591.045ZM148.607 591.045H139.352L143.979 600.605L148.607 591.045ZM123.156 591.045L118.529 600.605H127.783L123.156 591.045ZM109.274 591.045H100.019L104.646 600.605L109.274 591.045ZM86.1367 591.045L81.5092 600.605H90.7641L86.1367 591.045ZM479.467 572.773H470.212L474.84 582.333L479.467 572.773ZM456.33 572.773L451.703 582.333H460.958L456.33 572.773ZM442.448 572.773H433.193L437.82 582.333L442.448 572.773ZM419.311 572.773L414.683 582.333H423.938L419.311 572.773ZM405.428 572.773H396.174L400.801 582.333L405.428 572.773ZM382.291 572.773L377.664 582.333H386.919L382.291 572.773ZM366.095 572.773H356.841L361.468 582.333L366.095 572.773ZM342.958 572.773L338.331 582.333H347.586L342.958 572.773ZM329.076 572.773H319.821L324.449 582.333L329.076 572.773ZM305.939 572.773L301.312 582.333H310.566L305.939 572.773ZM292.057 572.773H282.802L287.429 582.333L292.057 572.773ZM268.92 572.773L264.292 582.333H273.547L268.92 572.773ZM255.037 572.773H245.783L250.41 582.333L255.037 572.773ZM231.9 572.773L227.273 582.333H236.528L231.9 572.773ZM215.704 572.773H206.45L211.077 582.333L215.704 572.773ZM192.567 572.773L187.94 582.333H197.195L192.567 572.773ZM178.685 572.773H169.43L174.058 582.333L178.685 572.773ZM155.548 572.773L150.921 582.333H160.175L155.548 572.773ZM141.666 572.773H132.411L137.038 582.333L141.666 572.773ZM118.529 572.773L113.901 582.333H123.156L118.529 572.773ZM104.646 572.773H95.3915L100.019 582.333L104.646 572.773ZM79.1955 572.773L74.5681 582.333H83.823L79.1955 572.773ZM467.899 556.891L463.271 566.451H472.526L467.899 556.891ZM454.016 556.891H444.762L449.389 566.451L454.016 556.891ZM430.879 556.891L426.252 566.451H435.507L430.879 556.891ZM416.997 556.891H407.742L412.37 566.451L416.997 556.891ZM393.86 556.891L389.233 566.451H398.487L393.86 556.891ZM379.978 556.891H370.723L375.35 566.451L379.978 556.891ZM356.841 556.891L352.213 566.451H361.468L356.841 556.891ZM342.958 556.891H333.704L338.331 566.451L342.958 556.891ZM317.508 556.891L312.88 566.451H322.135L317.508 556.891ZM93.0778 556.891L88.4504 566.451H97.7052L93.0778 556.891ZM303.625 556.891H294.37L298.998 566.451L303.625 556.891ZM280.488 556.891L275.861 566.451H285.116L280.488 556.891ZM266.606 556.891H257.351L261.979 566.451L266.606 556.891ZM243.469 556.891L238.841 566.451H248.096L243.469 556.891ZM229.587 556.891H220.332L224.959 566.451L229.587 556.891ZM206.45 556.891L201.822 566.451H211.077L206.45 556.891ZM192.567 556.891H183.312L187.94 566.451L192.567 556.891ZM167.116 556.891L162.489 566.451H171.744L167.116 556.891ZM153.234 556.891H143.979L148.607 566.451L153.234 556.891ZM130.097 556.891L125.47 566.451H134.725L130.097 556.891ZM116.215 556.891H106.96L111.587 566.451L116.215 556.891ZM437.82 538.62L433.193 548.18H442.448L437.82 538.62ZM423.938 538.62H414.683L419.311 548.18L423.938 538.62ZM400.801 538.62L396.174 548.18H405.428L400.801 538.62ZM386.919 538.62H377.664L382.291 548.18L386.919 538.62ZM361.468 538.62L356.841 548.18H366.095L361.468 538.62ZM347.586 538.62H338.331L342.958 548.18L347.586 538.62ZM324.449 538.62L319.821 548.18H329.076L324.449 538.62ZM310.566 538.62H301.312L305.939 548.18L310.566 538.62ZM287.429 538.62L282.802 548.18H292.057L287.429 538.62ZM273.547 538.62H264.292L268.92 548.18L273.547 538.62ZM250.41 538.62L245.783 548.18H255.037L250.41 538.62ZM236.528 538.62H227.273L231.9 548.18L236.528 538.62ZM211.077 538.62L206.45 548.18H215.704L211.077 538.62ZM197.195 538.62H187.94L192.567 548.18L197.195 538.62ZM174.058 538.62L169.43 548.18H178.685L174.058 538.62ZM160.175 538.62H150.921L155.548 548.18L160.175 538.62ZM137.038 538.62L132.411 548.18H141.666L137.038 538.62ZM123.156 538.62H113.901L118.529 548.18L123.156 538.62ZM100.019 538.62L95.3915 548.18H104.646L100.019 538.62ZM435.507 522.738H426.252L430.879 532.298L435.507 522.738ZM412.37 522.738L407.742 532.298H416.997L412.37 522.738ZM398.487 522.738H389.233L393.86 532.298L398.487 522.738ZM375.35 522.738L370.723 532.298H379.978L375.35 522.738ZM361.468 522.738H352.213L356.841 532.298L361.468 522.738ZM338.331 522.738L333.704 532.298H342.958L338.331 522.738ZM322.135 522.738H312.88L317.508 532.298L322.135 522.738ZM298.998 522.738L294.37 532.298H303.625L298.998 522.738ZM285.116 522.738H275.861L280.488 532.298L285.116 522.738ZM261.979 522.738L257.351 532.298H266.606L261.979 522.738ZM248.096 522.738H238.841L243.469 532.298L248.096 522.738ZM224.959 522.738L220.332 532.298H229.587L224.959 522.738ZM211.077 522.738H201.822L206.45 532.298L211.077 522.738ZM187.94 522.738L183.312 532.298H192.567L187.94 522.738ZM171.744 522.738H162.489L167.116 532.298L171.744 522.738ZM148.607 522.738L143.979 532.298H153.234L148.607 522.738ZM134.725 522.738H125.47L130.097 532.298L134.725 522.738ZM405.428 504.466L400.801 514.026H410.056L405.428 504.466ZM391.546 504.466H382.291L386.919 514.026L391.546 504.466ZM368.409 504.466L363.782 514.026H373.037L368.409 504.466ZM354.527 504.466H345.272L349.9 514.026L354.527 504.466ZM331.39 504.466L326.762 514.026H336.017L331.39 504.466ZM317.508 504.466H308.253L312.88 514.026L317.508 504.466ZM294.37 504.466L289.743 514.026H298.998L294.37 504.466ZM278.175 504.466H268.92L273.547 514.026L278.175 504.466ZM255.037 504.466L250.41 514.026H259.665L255.037 504.466ZM241.155 504.466H231.9L236.528 514.026L241.155 504.466ZM218.018 504.466L213.391 514.026H222.645L218.018 504.466ZM204.136 504.466H194.881L199.508 514.026L204.136 504.466ZM180.999 504.466L176.371 514.026H185.626L180.999 504.466ZM167.116 504.466H157.862L162.489 514.026L167.116 504.466ZM143.979 504.466L139.352 514.026H148.607L143.979 504.466ZM366.095 488.585H356.841L361.468 498.145L366.095 488.585ZM342.958 488.585L338.331 498.145H347.586L342.958 488.585ZM329.076 488.585H319.821L324.449 498.145L329.076 488.585ZM305.939 488.585L301.312 498.145H310.566L305.939 488.585ZM292.057 488.585H282.802L287.429 498.145L292.057 488.585ZM268.92 488.585L264.292 498.145H273.547L268.92 488.585ZM255.037 488.585H245.783L250.41 498.145L255.037 488.585ZM231.9 488.585L227.273 498.145H236.528L231.9 488.585ZM215.704 488.585H206.45L211.077 498.145L215.704 488.585ZM192.567 488.585L187.94 498.145H197.195L192.567 488.585Z" fill="#5D8AFF" stroke="#141A32" stroke-width="0.1"/>
<path d="M483.116 575.899C451.267 519.205 393.15 484.11 330.077 483.485L310.284 483.29" stroke="black" stroke-opacity="0.514793"/>
<path d="M69.627 575.899C101.476 519.205 159.593 484.11 222.666 483.485L242.459 483.29" stroke="black" stroke-opacity="0.514793"/>
<path d="M69.627 691.127V58.4936C69.627 33.2522 89.2771 12.79 113.517 12.79H439.226C463.465 12.79 483.116 33.2522 483.116 58.4936V691.127" stroke="url(#paint0_linear_176_1030)" stroke-opacity="0.514793"/>
<path d="M365.306 12.79C365.306 32.7174 349.854 48.8718 330.794 48.8718H221.948C202.888 48.8718 187.437 32.7174 187.437 12.79" stroke="url(#paint1_linear_176_1030)" stroke-opacity="0.514793"/>
<path d="M234.253 505.17H312.923V416.438H234.253V505.17Z" fill="#FFC6C6"/>
<path d="M235.508 503.853H311.671V417.758H235.508V503.853ZM312.924 506.491H234.254C233.562 506.491 233 505.902 233 505.171V416.438C233 415.706 233.562 415.117 234.254 415.117H312.924C313.617 415.117 314.178 415.706 314.178 416.438V505.171C314.178 505.902 313.617 506.491 312.924 506.491Z" fill="#141A32"/>
<path opacity="0.254971" d="M234.293 464.182C243.845 463.105 255.927 457.569 266.323 451.819C253.958 450.152 242.849 444.321 234.293 435.676V464.182Z" fill="#141A32"/>
<path d="M215.98 351.143C204.568 351.143 195.319 360.886 195.319 372.903C195.319 384.923 204.568 394.664 215.98 394.664H216.772V351.143H215.98Z" fill="#FFC6C6"/>
<path d="M215.519 352.468C205.031 352.729 196.573 361.794 196.573 372.903C196.573 384.009 205.031 393.076 215.519 393.337V352.468ZM216.772 395.984H215.98C203.898 395.984 194.065 385.63 194.065 372.903C194.065 360.177 203.898 349.821 215.98 349.821H216.772C217.467 349.821 218.026 350.413 218.026 351.142V394.663C218.026 395.392 217.467 395.984 216.772 395.984Z" fill="#141A32"/>
<path d="M331.197 351.143H330.404V394.664H331.197C342.609 394.664 351.857 384.923 351.857 372.903C351.857 360.886 342.609 351.143 331.197 351.143Z" fill="#FFC6C6"/>
<path d="M331.659 352.468V393.337C342.146 393.076 350.604 384.009 350.604 372.903C350.604 361.794 342.146 352.729 331.659 352.468ZM331.198 395.984H330.405C329.711 395.984 329.151 395.392 329.151 394.663V351.142C329.151 350.413 329.711 349.821 330.405 349.821H331.198C343.282 349.821 353.112 360.177 353.112 372.903C353.112 385.63 343.282 395.984 331.198 395.984Z" fill="#141A32"/>
<path d="M330.212 334.907L330.034 334.928C328.522 321.183 322.23 308.915 312.884 299.829C304.328 291.512 293.219 285.902 280.856 284.299C278.471 283.99 276.056 283.779 273.589 283.779C244.304 283.779 220.213 306.232 217.126 335.071L216.94 335.261C217.026 333.763 217.169 332.281 217.364 330.816C216.993 333.304 216.772 335.9 216.772 338.594V341.346V345.194V348.585V387.062V390.453V394.302V397.054C216.772 398.279 216.85 399.51 216.966 400.741L217.144 400.72C218.656 414.464 224.947 426.733 234.294 435.816C242.85 444.135 253.959 449.742 266.321 451.346C268.706 451.655 271.121 451.869 273.589 451.869C302.873 451.869 326.964 429.416 330.051 400.577L330.237 400.387C330.154 401.884 330.009 403.366 329.813 404.829C330.184 402.344 330.405 399.748 330.405 397.054V394.302V390.453V387.062V348.585V345.194V341.346V338.594C330.405 337.368 330.327 336.138 330.212 334.907Z" fill="#FFC6C6"/>
<path d="M218.164 400.038L218.39 400.569C219.819 413.561 225.77 425.734 235.141 434.846C243.783 443.245 254.616 448.496 266.477 450.036C269.163 450.385 271.422 450.548 273.591 450.548C302.011 450.548 325.746 429.002 328.805 400.429C328.833 400.178 328.928 399.943 329.076 399.748C329.126 398.842 329.151 397.941 329.151 397.054V338.594C329.151 337.693 329.106 336.735 329.021 335.67L328.787 335.079C327.358 322.087 321.407 309.914 312.036 300.802C303.395 292.403 292.562 287.152 280.7 285.612C278.002 285.261 275.74 285.097 273.589 285.097C245.169 285.097 221.432 306.644 218.372 335.219C218.345 335.47 218.249 335.705 218.104 335.9C218.051 336.806 218.026 337.707 218.026 338.594V397.054C218.026 397.97 218.071 398.953 218.164 400.038ZM273.591 453.189C271.317 453.189 268.959 453.02 266.168 452.659C253.786 451.05 242.468 445.562 233.443 436.788C223.764 427.38 217.572 414.847 215.962 401.441L215.719 400.87C215.586 399.465 215.519 398.216 215.519 397.054V338.594C215.519 336 215.722 333.314 216.125 330.615C216.181 330.235 216.386 329.918 216.667 329.72C222.021 302.436 245.641 282.456 273.589 282.456C275.846 282.456 278.203 282.628 281.011 282.989C293.392 284.598 304.709 290.086 313.734 298.86C323.414 308.268 329.605 320.801 331.215 334.207L331.458 334.778C331.591 336.183 331.659 337.432 331.659 338.594V397.054C331.659 399.648 331.456 402.334 331.054 405.033C330.997 405.413 330.791 405.73 330.51 405.928C325.156 433.209 301.537 453.189 273.591 453.189Z" fill="#141A32"/>
<path d="M380.36 246.813C381.243 245.485 382.078 244.104 382.795 242.617C391.18 225.296 384.721 204.053 368.371 195.17C359.418 190.308 349.365 190.187 340.716 193.892C337.341 189.217 332.99 185.219 327.719 182.353C308.741 172.044 285.47 179.986 275.74 200.091C272.763 206.242 271.414 212.821 271.499 219.284C257.915 218.703 244.602 226.299 237.992 239.957C229.86 256.76 234.677 276.931 248.499 287.857C228.526 297.78 214.698 319.174 214.698 343.974V359.428C216.383 358.963 218.059 358.379 219.701 357.592C231.352 352.019 238.132 339.777 237.829 327.102C244.181 328.616 251.027 328.074 257.414 325.019C263.214 322.243 267.803 317.813 270.918 312.505C278.701 325.766 294.5 331.434 308.478 325.637C308.121 330.879 308.967 336.288 311.176 341.412C315.329 351.042 323.388 357.481 332.478 359.666V343.974C332.478 337.287 331.46 330.853 329.602 324.818C335.014 321.107 339.871 316.379 343.763 310.585C360.522 316.926 379.522 309.319 387.86 292.088C395.376 276.564 391.843 258.149 380.36 246.813Z" fill="#141A32"/>
<path d="M308.48 324.316C308.741 324.316 309.004 324.403 309.222 324.572C309.568 324.841 309.759 325.277 309.731 325.731C309.378 330.89 310.27 336.124 312.317 340.863C315.95 349.293 322.789 355.453 331.225 357.964V343.974C331.225 337.59 330.277 331.286 328.408 325.227C328.235 324.659 328.444 324.036 328.917 323.711C334.444 319.921 339.096 315.246 342.74 309.821C343.066 309.338 343.658 309.145 344.187 309.34C360.537 315.534 378.825 307.848 386.744 291.489C393.793 276.922 390.819 258.947 379.502 247.777C379.046 247.328 378.973 246.596 379.332 246.058C380.312 244.581 381.057 243.3 381.679 242.017C389.738 225.369 383.509 204.882 367.794 196.346C359.536 191.858 349.841 191.409 341.19 195.115C340.663 195.334 340.062 195.165 339.718 194.692C336.303 189.962 332.072 186.203 327.142 183.525C318.285 178.713 308.187 177.834 298.708 181.053C289.181 184.283 281.422 191.259 276.856 200.69C274.05 206.493 272.668 212.742 272.753 219.266C272.756 219.627 272.62 219.976 272.372 220.23C272.126 220.483 271.793 220.636 271.447 220.602C258.026 220.029 245.254 227.86 239.11 240.556C231.357 256.578 235.622 276.024 249.251 286.798C249.605 287.075 249.793 287.527 249.748 287.989C249.703 288.449 249.434 288.85 249.036 289.048C228.939 299.034 215.952 320.594 215.952 343.974V357.676C217.106 357.296 218.174 356.874 219.179 356.39C230.048 351.19 236.876 339.706 236.575 327.134C236.565 326.727 236.733 326.336 237.031 326.08C237.335 325.819 237.736 325.718 238.105 325.813C244.482 327.332 250.984 326.643 256.895 323.814C262.279 321.239 266.757 317.09 269.849 311.81C270.308 311.031 271.522 311.025 271.986 311.81C279.516 324.646 294.673 329.941 308.019 324.408L308.48 324.316ZM332.478 360.986L332.2 360.952C322.29 358.572 314.213 351.647 310.035 341.959C308.079 337.429 307.096 332.485 307.148 327.546C293.735 332.173 279.027 327.036 270.918 314.897C267.635 319.818 263.176 323.708 257.933 326.22C251.987 329.065 245.502 329.907 239.085 328.716C238.802 341.697 231.527 353.385 220.218 358.796C218.635 359.552 216.935 360.175 215.017 360.703C214.635 360.812 214.242 360.719 213.931 360.471C213.625 360.223 213.444 359.837 213.444 359.428V343.974C213.444 320.283 226.226 298.382 246.169 287.593C232.819 275.826 228.872 255.891 236.876 239.357C243.235 226.215 256.142 217.932 270.055 217.932L270.248 217.934C270.363 211.532 271.865 205.186 274.624 199.491C279.491 189.428 287.774 181.988 297.938 178.539C308.064 175.103 318.837 176.043 328.293 181.18C333.278 183.887 337.592 187.627 341.13 192.302C350.233 188.707 360.316 189.309 368.945 193.997C385.882 203.197 392.597 225.277 383.913 243.216C383.374 244.33 382.755 245.437 381.992 246.639C393.475 258.651 396.369 277.416 388.976 292.69C380.631 309.937 361.522 318.178 344.234 312.151C340.676 317.248 336.257 321.69 331.079 325.37C332.839 331.397 333.732 337.651 333.732 343.974V359.665C333.732 360.067 333.559 360.447 333.258 360.695C333.038 360.885 332.759 360.986 332.478 360.986Z" fill="#141A32"/>
<path d="M293.459 368.291C293.459 370.837 295.42 372.903 297.837 372.903C300.257 372.903 302.218 370.837 302.218 368.291C302.218 365.743 300.257 363.677 297.837 363.677C295.42 363.677 293.459 365.743 293.459 368.291Z" fill="#141A32"/>
<path d="M242.355 368.291C242.355 370.837 244.316 372.903 246.734 372.903C249.154 372.903 251.115 370.837 251.115 368.291C251.115 365.743 249.154 363.677 246.734 363.677C244.316 363.677 242.355 365.743 242.355 368.291Z" fill="#141A32"/>
<path d="M341.263 379.094C340.979 379.094 340.696 378.993 340.463 378.79L336.466 375.296C335.994 374.881 335.741 374.279 335.761 373.637C335.781 372.995 336.079 372.412 336.576 372.034L341.107 368.611C341.664 368.183 342.449 368.318 342.858 368.917C343.261 369.506 343.131 370.333 342.567 370.758L338.617 373.745L342.063 376.756C342.597 377.224 342.669 378.058 342.228 378.616C341.98 378.933 341.621 379.094 341.263 379.094Z" fill="#141A32"/>
<path d="M209.788 374.181H209.813H209.788ZM206.566 379.094C206.205 379.094 205.849 378.933 205.601 378.616C205.157 378.058 205.232 377.224 205.766 376.756L209.212 373.743L205.259 370.758C204.698 370.333 204.567 369.506 204.971 368.917C205.375 368.318 206.162 368.183 206.721 368.611L211.25 372.034C211.749 372.412 212.048 372.998 212.065 373.64C212.088 374.282 211.832 374.884 211.358 375.296L207.366 378.79C207.135 378.993 206.849 379.094 206.566 379.094Z" fill="#141A32"/>
<path d="M281.881 342.439C283.097 343.451 284.925 343.773 286.673 344.188C288.441 344.568 290.209 344.996 291.733 345.427C293.26 345.854 294.998 346.412 296.711 347.011C298.424 347.569 300.169 348.25 301.684 348.007C303.141 347.79 304.096 346.269 303.068 343.779C302.117 341.37 298.86 338.121 293.81 336.69C288.762 335.282 284.463 336.404 282.555 338.01C280.547 339.648 280.702 341.483 281.881 342.439Z" fill="#141A32"/>
<path d="M262.535 342.231C261.331 343.232 259.528 343.549 257.8 343.958C256.053 344.333 254.307 344.756 252.803 345.181C251.293 345.606 249.578 346.156 247.885 346.747C246.192 347.297 244.47 347.97 242.973 347.73C241.533 347.518 240.588 346.016 241.606 343.554C242.544 341.174 245.764 337.965 250.749 336.55C255.737 335.163 259.982 336.27 261.868 337.857C263.851 339.473 263.698 341.285 262.535 342.231Z" fill="#141A32"/>
<path d="M296.451 392.68C295.107 391.486 293.146 391.505 291.722 392.593C289.129 394.574 283.584 397.973 276.182 397.875C274.364 397.854 273.197 399.943 273.782 401.755C275.068 405.741 278.978 412.119 288.936 408.588C301.073 404.285 299.954 395.791 296.451 392.68Z" fill="#F9F7F3"/>
<path d="M276.151 399.196C275.678 399.196 275.372 399.492 275.201 399.74C274.888 400.192 274.8 400.804 274.97 401.33C276.139 404.956 279.454 410.548 288.537 407.336C293.69 405.511 296.86 402.669 297.462 399.339C297.926 396.771 296.772 394.69 295.641 393.686C294.761 392.913 293.449 392.905 292.459 393.66C289.69 395.773 283.832 399.307 276.167 399.196H276.151ZM283.547 410.944C276.101 410.944 273.348 404.515 272.596 402.178C272.162 400.836 272.375 399.341 273.172 398.19C273.895 397.136 274.993 396.526 276.197 396.555L276.495 396.557C283.358 396.557 288.509 393.414 290.984 391.523C292.918 390.044 295.498 390.108 297.259 391.669V391.671C299.425 393.594 300.471 396.798 299.924 399.832C299.473 402.328 297.499 406.948 289.337 409.84C287.148 410.616 285.227 410.944 283.547 410.944Z" fill="#141A32"/>
<path d="M243.155 361.829C242.905 361.829 242.656 361.749 242.441 361.591C241.879 361.174 241.731 360.371 242.12 359.771C243.133 358.21 246.388 355.801 251.441 357.906C252.085 358.173 252.401 358.942 252.148 359.621C251.895 360.297 251.165 360.635 250.52 360.363C246.119 358.54 244.259 361.16 244.181 361.277C243.935 361.633 243.547 361.829 243.155 361.829Z" fill="#141A32"/>
<path d="M293.926 359.929C293.675 359.929 293.427 359.85 293.211 359.691C292.649 359.277 292.504 358.471 292.89 357.872C293.901 356.313 297.156 353.907 302.214 356.007C302.856 356.274 303.172 357.042 302.918 357.721C302.663 358.4 301.933 358.741 301.291 358.463C296.892 356.644 295.029 359.261 294.951 359.377C294.706 359.736 294.317 359.929 293.926 359.929Z" fill="#141A32"/>
<path d="M277.134 387.144H277.132L273.488 387.134C267.257 387.112 262.204 381.73 262.224 375.135C262.234 372.596 264.19 370.539 266.587 370.539H266.612C267.931 370.539 269.173 369.998 270.108 369.01C271.051 368.019 271.57 366.699 271.575 365.294L271.605 355.764C271.607 355.038 272.167 354.449 272.859 354.449H272.861C273.553 354.452 274.115 355.046 274.113 355.775L274.083 365.299C274.077 367.407 273.295 369.387 271.881 370.877C270.466 372.367 268.526 373.296 266.592 373.18H266.587C265.566 373.18 264.736 374.06 264.731 375.145C264.716 380.282 268.648 384.476 273.493 384.492L277.137 384.503C277.829 384.506 278.391 385.1 278.388 385.826C278.386 386.555 277.824 387.144 277.134 387.144Z" fill="#141A32"/>
<path d="M265.725 436.951C265.725 436.951 269.15 433.367 275.587 437.332L265.725 436.951Z" fill="#F89A6E"/>
<path d="M275.587 438.655L274.953 438.476C269.511 435.119 266.712 437.781 266.597 437.9C266.101 438.389 265.306 438.381 264.832 437.86C264.355 437.343 264.355 436.521 264.842 436.014C265.01 435.837 269.022 431.764 276.222 436.194C276.821 436.563 277.021 437.372 276.67 438.003C276.437 438.42 276.016 438.655 275.587 438.655Z" fill="#141A32"/>
<path d="M222.347 466.877L222.347 891.441C253.834 855.894 291.511 855.894 322.999 891.441V799.167L322.999 559.151V466.877C291.509 502.425 253.834 502.425 222.347 466.877Z" fill="#FDB032"/>
<path d="M272.673 863.467C289.685 863.467 306.594 871.99 321.739 888.151L321.739 470.167C306.594 486.33 289.685 494.849 272.673 494.849C255.66 494.849 238.752 486.33 223.606 470.167L223.606 888.151C238.752 871.99 255.66 863.467 272.673 863.467ZM322.999 892.754C322.654 892.754 322.316 892.604 322.072 892.329C306.866 875.165 289.786 866.093 272.673 866.093C255.56 866.093 238.479 875.165 223.274 892.329C222.918 892.728 222.367 892.861 221.891 892.665C221.404 892.465 221.087 891.982 221.087 891.441L221.087 466.877C221.087 466.336 221.404 465.85 221.891 465.653C222.367 465.454 222.918 465.59 223.274 465.987C238.479 483.15 255.56 492.223 272.673 492.223C289.786 492.223 306.866 483.15 322.072 465.987C322.427 465.59 322.979 465.454 323.455 465.653C323.941 465.85 324.256 466.336 324.256 466.877L324.256 891.441C324.256 891.982 323.941 892.465 323.455 892.665L322.999 892.754Z" fill="#141A32"/>
<path d="M322.999 466.878C291.511 484.219 253.834 484.219 222.347 466.878V483.348C253.834 500.689 291.511 500.689 322.999 483.348V466.878Z" fill="#FDB032"/>
<path d="M223.606 482.552C254.388 499.214 290.957 499.214 321.739 482.552L321.742 469.031C290.861 485.27 254.486 485.267 223.606 469.033V482.552ZM272.673 497.675C255.184 497.675 237.701 493.289 221.76 484.508C221.346 484.28 221.087 483.833 221.087 483.345V466.877C221.087 466.418 221.319 465.99 221.699 465.751C222.077 465.52 222.546 465.504 222.936 465.717C254.081 482.872 291.264 482.872 322.409 465.717C322.8 465.504 323.271 465.52 323.646 465.751C324.027 465.99 324.258 466.415 324.258 466.877L324.261 483.345C324.261 483.833 324.001 484.28 323.588 484.508C307.649 493.287 290.156 497.675 272.673 497.675Z" fill="#141A32"/>
<path d="M440.5 427.192C452.372 427.192 461.995 417.171 461.995 404.809C461.995 392.447 452.372 382.426 440.5 382.426C428.629 382.426 419.006 392.447 419.006 404.809C419.006 417.171 428.629 427.192 440.5 427.192Z" fill="#537CE6" stroke="white"/>
<path d="M520.337 427.192C532.208 427.192 541.832 417.171 541.832 404.809C541.832 392.447 532.208 382.426 520.337 382.426C508.466 382.426 498.843 392.447 498.843 404.809C498.843 417.171 508.466 427.192 520.337 427.192Z" fill="#537CE6" stroke="white"/>
<path fill-rule="evenodd" clip-rule="evenodd" d="M440.5 405.449L449.098 373.473H503.755L479.804 405.449H440.5Z" stroke="white"/>
<path d="M498.843 360.683L520.337 405.449" stroke="white"/>
<path d="M449.098 373.473V366.438" stroke="white"/>
<path d="M442.957 366.438H455.24" stroke="white"/>
<path fill-rule="evenodd" clip-rule="evenodd" d="M498.843 360.683V345.974L488.402 340.219" fill="#5D8AFF"/>
<path d="M498.843 360.683V345.974L488.402 340.219" stroke="white"/>
<path d="M36.4988 389.185C55.6854 409.165 86.7931 409.165 105.98 389.185C125.166 369.206 125.166 336.813 105.98 316.833C86.7931 296.854 55.6854 296.854 36.4988 316.833C17.3122 336.813 17.3122 369.206 36.4988 389.185Z" fill="#5D8AFF" stroke="white"/>
<path d="M103.809 314.572L34.3277 386.924" stroke="white"/>
<path d="M108.151 319.094L38.6704 391.446" stroke="white"/>
<path d="M109.454 322.259L106.849 324.972" stroke="white"/>
<path d="M100.769 313.215L98.163 315.929" stroke="white"/>
<path d="M105.111 326.782L102.506 329.495" stroke="white"/>
<path d="M96.4258 317.737L93.8202 320.451" stroke="white"/>
<path d="M100.769 331.303L98.163 334.016" stroke="white"/>
<path d="M92.084 322.259L89.4784 324.972" stroke="white"/>
<path d="M96.4258 335.825L93.8202 338.538" stroke="white"/>
<path d="M87.7412 326.782L85.1357 329.495" stroke="white"/>
<path d="M92.084 340.348L89.4784 343.061" stroke="white"/>
<path d="M83.3984 331.303L80.7929 334.016" stroke="white"/>
<path d="M87.7412 344.87L85.1357 347.583" stroke="white"/>
<path d="M79.0557 335.825L76.4501 338.538" stroke="white"/>
<path d="M83.3984 349.391L80.7929 352.104" stroke="white"/>
<path d="M74.7129 340.348L72.1074 343.061" stroke="white"/>
<path d="M79.0557 353.913L76.4501 356.626" stroke="white"/>
<path d="M70.3711 344.87L67.7656 347.583" stroke="white"/>
<path d="M74.7129 358.436L72.1074 361.149" stroke="white"/>
<path d="M66.0283 349.391L63.4228 352.104" stroke="white"/>
<path d="M70.3711 362.958L67.7656 365.671" stroke="white"/>
<path d="M61.6855 353.913L59.08 356.626" stroke="white"/>
<path d="M66.0283 367.479L63.4228 370.192" stroke="white"/>
<path d="M57.3438 358.436L54.7382 361.149" stroke="white"/>
<path d="M61.6855 372.001L59.08 374.714" stroke="white"/>
<path d="M53 362.958L50.3945 365.671" stroke="white"/>
<path d="M57.3438 376.523L54.7382 379.237" stroke="white"/>
<path d="M48.6582 367.479L46.0527 370.192" stroke="white"/>
<path d="M53 381.045L50.3945 383.759" stroke="white"/>
<path d="M44.3154 372.001L41.7099 374.714" stroke="white"/>
<path d="M48.6582 385.568L46.0527 388.281" stroke="white"/>
<path d="M39.9727 376.523L37.3671 379.237" stroke="white"/>
<path d="M44.3154 390.089L41.7099 392.803" stroke="white"/>
<path d="M35.6309 381.045L33.0253 383.759" stroke="white"/>
<path fill-rule="evenodd" clip-rule="evenodd" d="M337.942 42.5254L307.371 74.3603L369.942 128.879C373.065 131.6 377.666 131.387 380.545 128.389L389.827 118.723C392.706 115.725 392.91 110.934 390.297 107.682L337.942 42.5254Z" fill="#5D8AFF" stroke="white"/>
<path fill-rule="evenodd" clip-rule="evenodd" d="M322.656 88.0958C314.773 88.3532 306.447 84.9749 300.417 78.6963C288.862 66.6632 288.826 47.1904 300.338 35.2027C311.85 23.215 330.55 23.2518 342.106 35.2849C348.323 41.7587 351.205 50.3857 350.749 58.8421C350.357 66.104 330.54 87.8383 322.656 88.0958Z" fill="#5D8AFF" stroke="white"/>
<path d="M384.331 102.408L364.182 123.39" stroke="white"/>
<path d="M346.562 83.3364L355.22 92.3521" stroke="white"/>
<path d="M385.186 123.556L392.4 131.069" stroke="white"/>
<path fill-rule="evenodd" clip-rule="evenodd" d="M83.9922 91.664L84.4716 91.2476C98.465 79.0932 115.495 71.3428 133.566 68.9044L139.796 130.625C123.519 132.242 108.037 138.719 95.2104 149.278L90.2218 153.384L83.9922 91.664Z" fill="#5D8AFF" stroke="white"/>
<path fill-rule="evenodd" clip-rule="evenodd" d="M83.5343 87.1292L85.0802 85.5245C96.0693 74.1173 110.345 66.774 125.723 64.6187L132.154 128.33C118.301 129.678 105.278 135.809 95.1537 145.747L89.9649 150.84L83.5343 87.1292Z" fill="#5D8AFF" stroke="white"/>
<path fill-rule="evenodd" clip-rule="evenodd" d="M86.4355 91.3969L85.8835 91.0934C69.7691 82.2343 51.5639 78.3402 33.4007 79.8676L39.6303 141.588C55.8742 139.646 72.3109 142.63 86.9657 150.181L92.6651 153.117L86.4355 91.3969Z" fill="#5D8AFF" stroke="white"/>
<path fill-rule="evenodd" clip-rule="evenodd" d="M85.9777 86.8621L84.1452 85.6272C71.1186 76.8484 55.6884 72.7564 40.2162 73.9775L46.6468 137.689C60.4663 136.008 74.4288 139.185 86.3159 146.714L92.4083 150.573L85.9777 86.8621Z" fill="#5D8AFF" stroke="white"/>
</g>
<defs>
<linearGradient id="paint0_linear_176_1030" x1="276.371" y1="12.79" x2="276.209" y2="574.516" gradientUnits="userSpaceOnUse">
<stop stop-color="white"/>
<stop offset="1" stop-color="white"/>
</linearGradient>
<linearGradient id="paint1_linear_176_1030" x1="276.371" y1="12.79" x2="276.37" y2="42.6691" gradientUnits="userSpaceOnUse">
<stop stop-color="white"/>
<stop offset="1" stop-color="white"/>
</linearGradient>
</defs>
</svg>
