<svg width="565" height="570" viewBox="0 0 565 570" fill="none" xmlns="http://www.w3.org/2000/svg">
<mask id="mask0_186_1139" style="mask-type:alpha" maskUnits="userSpaceOnUse" x="0" y="0" width="565" height="573">
<path d="M565 0H0V573H565V0Z" fill="white"/>
</mask>
<g mask="url(#mask0_186_1139)">
<path opacity="0.447027" fill-rule="evenodd" clip-rule="evenodd" d="M211.452 484.055C246.684 479.506 312.036 478.475 348.633 484.055C360.251 485.826 371.266 488.314 381.679 491.518L377.664 499.643H386.919L383.133 491.971C388.976 493.816 394.626 495.889 400.085 498.19L400.801 499.643L401.271 498.695C409.217 502.11 416.753 506.013 423.879 510.403L426.252 515.206L427.492 512.694C434.518 517.278 441.129 522.354 447.325 527.925L444.762 533.113L452.83 533.112C454.863 535.119 456.847 537.183 458.783 539.305L451.703 539.308L456.33 548.676L460.188 540.865C468.989 550.763 476.763 561.882 483.508 574.225L483.507 590.682L477.153 590.684L481.781 600.053L483.507 596.553L483.508 618.123L394.744 615.75L394.055 615.219L398.487 606.248H389.233L393.422 614.73L380.911 605.072V615.75H142.285V605.072L130.999 613.782L134.725 606.248H125.47L129.689 614.795L128.452 615.75H70.8126L70.8115 615.615L79.1955 615.616L74.5681 606.248L70.8115 613.85V593.602L72.2544 590.684L70.8115 590.682L70.8126 574.225C84.2116 555.263 97.0022 540.058 109.184 528.61L106.96 533.113H116.215L112.495 525.578C115.942 522.504 119.34 519.737 122.688 517.275C125.485 515.219 128.45 513 131.793 510.705L132.862 509.978C137.899 506.583 143.801 503.044 151.237 499.641L160.175 499.643L158.632 496.518C162.25 495.109 166.188 493.741 170.496 492.436L174.058 499.643L178.685 490.274L178.222 490.273C187.6 487.851 198.542 485.722 211.452 484.055ZM472.526 606.248H463.271L467.899 615.616L472.526 606.248ZM449.389 606.248L444.762 615.616H454.016L449.389 606.248ZM435.507 606.248H426.252L430.879 615.616L435.507 606.248ZM412.37 606.248L407.742 615.616H416.997L412.37 606.248ZM375.35 606.248L370.723 615.616H379.978L375.35 606.248ZM361.468 606.248H352.213L356.841 615.616L361.468 606.248ZM338.331 606.248L333.704 615.616H342.958L338.331 606.248ZM322.135 606.248H312.88L317.508 615.616L322.135 606.248ZM298.998 606.248L294.37 615.616H303.625L298.998 606.248ZM285.116 606.248H275.861L280.488 615.616L285.116 606.248ZM261.979 606.248L257.351 615.616H266.606L261.979 606.248ZM248.096 606.248H238.841L243.469 615.616L248.096 606.248ZM224.959 606.248L220.332 615.616H229.587L224.959 606.248ZM211.077 606.248H201.822L206.45 615.616L211.077 606.248ZM187.94 606.248L183.312 615.616H192.567L187.94 606.248ZM171.744 606.248H162.489L167.116 615.616L171.744 606.248ZM148.607 606.248L143.979 615.616H153.234L148.607 606.248ZM111.587 606.248L106.96 615.616H116.215L111.587 606.248ZM97.7052 606.248H88.4504L93.0778 615.616L97.7052 606.248ZM298.998 590.684H289.743L294.37 600.053L298.998 590.684ZM463.271 590.684L458.644 600.053H467.899L463.271 590.684ZM449.389 590.684H440.134L444.762 600.053L449.389 590.684ZM426.252 590.684L421.624 600.053H430.879L426.252 590.684ZM410.056 590.684H400.801L405.428 600.053L410.056 590.684ZM386.919 590.684L382.291 600.053H391.546L386.919 590.684ZM373.037 590.684H363.782L368.409 600.053L373.037 590.684ZM349.899 590.684L345.272 600.053H354.527L349.899 590.684ZM336.017 590.684H326.762L331.39 600.053L336.017 590.684ZM312.88 590.684L308.253 600.053H317.508L312.88 590.684ZM273.547 590.684L268.92 600.053H278.175L273.547 590.684ZM259.665 590.684H250.41L255.037 600.053L259.665 590.684ZM236.528 590.684L231.9 600.053H241.155L236.528 590.684ZM222.645 590.684H213.391L218.018 600.053L222.645 590.684ZM199.508 590.684L194.881 600.053H204.136L199.508 590.684ZM185.626 590.684H176.371L180.999 600.053L185.626 590.684ZM162.489 590.684L157.862 600.053H167.116L162.489 590.684ZM148.607 590.684H139.352L143.979 600.053L148.607 590.684ZM123.156 590.684L118.529 600.053H127.783L123.156 590.684ZM109.274 590.684H100.019L104.646 600.053L109.274 590.684ZM86.1367 590.684L81.5092 600.053H90.7641L86.1367 590.684ZM479.467 572.778H470.212L474.84 582.146L479.467 572.778ZM456.33 572.778L451.703 582.146H460.958L456.33 572.778ZM442.448 572.778H433.193L437.82 582.146L442.448 572.778ZM419.311 572.778L414.683 582.146H423.938L419.311 572.778ZM405.428 572.778H396.174L400.801 582.146L405.428 572.778ZM382.291 572.778L377.664 582.146H386.919L382.291 572.778ZM366.095 572.778H356.841L361.468 582.146L366.095 572.778ZM342.958 572.778L338.331 582.146H347.586L342.958 572.778ZM329.076 572.778H319.821L324.449 582.146L329.076 572.778ZM305.939 572.778L301.312 582.146H310.566L305.939 572.778ZM292.057 572.778H282.802L287.429 582.146L292.057 572.778ZM268.92 572.778L264.292 582.146H273.547L268.92 572.778ZM255.037 572.778H245.783L250.41 582.146L255.037 572.778ZM231.9 572.778L227.273 582.146H236.528L231.9 572.778ZM215.704 572.778H206.45L211.077 582.146L215.704 572.778ZM192.567 572.778L187.94 582.146H197.195L192.567 572.778ZM178.685 572.778H169.43L174.058 582.146L178.685 572.778ZM155.548 572.778L150.921 582.146H160.175L155.548 572.778ZM141.666 572.778H132.411L137.038 582.146L141.666 572.778ZM118.529 572.778L113.901 582.146H123.156L118.529 572.778ZM104.646 572.778H95.3915L100.019 582.146L104.646 572.778ZM79.1955 572.778L74.5681 582.146H83.823L79.1955 572.778ZM467.899 557.214L463.271 566.582H472.526L467.899 557.214ZM454.016 557.214H444.762L449.389 566.582L454.016 557.214ZM430.879 557.214L426.252 566.582H435.507L430.879 557.214ZM416.997 557.214H407.742L412.37 566.582L416.997 557.214ZM393.86 557.214L389.233 566.582H398.487L393.86 557.214ZM379.978 557.214H370.723L375.35 566.582L379.978 557.214ZM356.841 557.214L352.213 566.582H361.468L356.841 557.214ZM342.958 557.214H333.704L338.331 566.582L342.958 557.214ZM317.508 557.214L312.88 566.582H322.135L317.508 557.214ZM93.0778 557.214L88.4504 566.582H97.7052L93.0778 557.214ZM303.625 557.214H294.37L298.998 566.582L303.625 557.214ZM280.488 557.214L275.861 566.582H285.116L280.488 557.214ZM266.606 557.214H257.351L261.979 566.582L266.606 557.214ZM243.469 557.214L238.841 566.582H248.096L243.469 557.214ZM229.587 557.214H220.332L224.959 566.582L229.587 557.214ZM206.45 557.214L201.822 566.582H211.077L206.45 557.214ZM192.567 557.214H183.312L187.94 566.582L192.567 557.214ZM167.116 557.214L162.489 566.582H171.744L167.116 557.214ZM153.234 557.214H143.979L148.607 566.582L153.234 557.214ZM130.097 557.214L125.47 566.582H134.725L130.097 557.214ZM116.215 557.214H106.96L111.587 566.582L116.215 557.214ZM437.82 539.308L433.193 548.676H442.448L437.82 539.308ZM423.938 539.308H414.683L419.311 548.676L423.938 539.308ZM400.801 539.308L396.174 548.676H405.428L400.801 539.308ZM386.919 539.308H377.664L382.291 548.676L386.919 539.308ZM361.468 539.308L356.841 548.676H366.095L361.468 539.308ZM347.586 539.308H338.331L342.958 548.676L347.586 539.308ZM324.449 539.308L319.821 548.676H329.076L324.449 539.308ZM310.566 539.308H301.312L305.939 548.676L310.566 539.308ZM287.429 539.308L282.802 548.676H292.057L287.429 539.308ZM273.547 539.308H264.292L268.92 548.676L273.547 539.308ZM250.41 539.308L245.783 548.676H255.037L250.41 539.308ZM236.528 539.308H227.273L231.9 548.676L236.528 539.308ZM211.077 539.308L206.45 548.676H215.704L211.077 539.308ZM197.195 539.308H187.94L192.567 548.676L197.195 539.308ZM174.058 539.308L169.43 548.676H178.685L174.058 539.308ZM160.175 539.308H150.921L155.548 548.676L160.175 539.308ZM137.038 539.308L132.411 548.676H141.666L137.038 539.308ZM123.156 539.308H113.901L118.529 548.676L123.156 539.308ZM100.019 539.308L95.3915 548.676H104.646L100.019 539.308ZM435.507 523.744H426.252L430.879 533.113L435.507 523.744ZM412.37 523.744L407.742 533.113H416.997L412.37 523.744ZM398.487 523.744H389.233L393.86 533.113L398.487 523.744ZM375.35 523.744L370.723 533.113H379.978L375.35 523.744ZM361.468 523.744H352.213L356.841 533.113L361.468 523.744ZM338.331 523.744L333.704 533.113H342.958L338.331 523.744ZM322.135 523.744H312.88L317.508 533.113L322.135 523.744ZM298.998 523.744L294.37 533.113H303.625L298.998 523.744ZM285.116 523.744H275.861L280.488 533.113L285.116 523.744ZM261.979 523.744L257.351 533.113H266.606L261.979 523.744ZM248.096 523.744H238.841L243.469 533.113L248.096 523.744ZM224.959 523.744L220.332 533.113H229.587L224.959 523.744ZM211.077 523.744H201.822L206.45 533.113L211.077 523.744ZM187.94 523.744L183.312 533.113H192.567L187.94 523.744ZM171.744 523.744H162.489L167.116 533.113L171.744 523.744ZM148.607 523.744L143.979 533.113H153.234L148.607 523.744ZM134.725 523.744H125.47L130.097 533.113L134.725 523.744ZM405.428 505.838L400.801 515.206H410.056L405.428 505.838ZM391.546 505.838H382.291L386.919 515.206L391.546 505.838ZM368.409 505.838L363.782 515.206H373.037L368.409 505.838ZM354.527 505.838H345.272L349.899 515.206L354.527 505.838ZM331.39 505.838L326.762 515.206H336.017L331.39 505.838ZM317.508 505.838H308.253L312.88 515.206L317.508 505.838ZM294.37 505.838L289.743 515.206H298.998L294.37 505.838ZM278.175 505.838H268.92L273.547 515.206L278.175 505.838ZM255.037 505.838L250.41 515.206H259.665L255.037 505.838ZM241.155 505.838H231.9L236.528 515.206L241.155 505.838ZM218.018 505.838L213.391 515.206H222.645L218.018 505.838ZM204.136 505.838H194.881L199.508 515.206L204.136 505.838ZM180.999 505.838L176.371 515.206H185.626L180.999 505.838ZM167.116 505.838H157.862L162.489 515.206L167.116 505.838ZM143.979 505.838L139.352 515.206H148.607L143.979 505.838ZM366.095 490.274H356.841L361.468 499.643L366.095 490.274ZM342.958 490.274L338.331 499.643H347.586L342.958 490.274ZM329.076 490.274H319.821L324.449 499.643L329.076 490.274ZM305.939 490.274L301.312 499.643H310.566L305.939 490.274ZM292.057 490.274H282.802L287.429 499.643L292.057 490.274ZM268.92 490.274L264.292 499.643H273.547L268.92 490.274ZM255.037 490.274H245.783L250.41 499.643L255.037 490.274ZM231.9 490.274L227.273 499.643H236.528L231.9 490.274ZM215.704 490.274H206.45L211.077 499.643L215.704 490.274ZM192.567 490.274L187.94 499.643H197.195L192.567 490.274Z" fill="#5D8AFF" stroke="#141A32" stroke-width="0.1"/>
<path d="M483.116 575.841C451.267 520.281 393.15 485.888 330.077 485.276L310.284 485.084" stroke="black" stroke-opacity="0.514793"/>
<path d="M69.627 575.841C101.476 520.281 159.593 485.888 222.666 485.276L242.459 485.084" stroke="black" stroke-opacity="0.514793"/>
<path d="M69.627 688.764V68.789C69.627 44.0527 89.2771 24 113.517 24H439.226C463.465 24 483.116 44.0527 483.116 68.789V688.764" stroke="url(#paint0_linear_186_1139)" stroke-opacity="0.514793"/>
<path d="M365.306 24C365.306 43.5287 349.854 59.3598 330.794 59.3598H221.948C202.888 59.3598 187.437 43.5287 187.437 24" stroke="url(#paint1_linear_186_1139)" stroke-opacity="0.514793"/>
<path d="M221.862 269.155C233.527 257.732 248.671 250.03 265.527 247.829C268.779 247.402 272.069 247.11 275.432 247.11C318.211 247.11 352.889 282.505 352.889 326.166V331.452V373.274L353.145 373.26C378.7 373.26 399.413 394.405 399.413 420.485C399.413 446.567 378.7 467.712 353.145 467.712C327.591 467.712 306.875 446.567 306.875 420.485C306.875 416.01 307.525 411.696 308.666 407.594L216.704 407.307C206.469 407.273 198.178 398.813 198.148 388.366L197.978 331.452V326.166C197.978 303.742 207.165 283.542 221.862 269.155Z" fill="#141A32"/>
<path d="M352.859 373.378C377.571 373.378 397.687 393.912 397.687 419.152C397.687 444.393 377.571 464.929 352.843 464.929C328.117 464.929 307.999 444.393 307.999 419.152C307.999 415.008 308.585 410.803 309.738 406.659C309.853 406.239 309.768 405.788 309.515 405.44C309.259 405.092 308.855 404.889 308.43 404.886L216.594 404.599C207.152 404.569 199.45 396.706 199.42 387.068L199.248 324.952C199.248 303.68 207.572 283.814 222.679 269.016C234.498 257.444 249.31 250.211 265.516 248.093C269.208 247.611 272.297 247.386 275.236 247.386C317.135 247.386 351.223 282.183 351.223 324.952V372.001C351.223 372.769 351.831 373.392 352.587 373.392L352.859 373.378ZM352.843 467.712C379.071 467.712 400.413 445.929 400.413 419.152C400.413 392.757 379.668 371.207 353.95 370.609V324.952C353.95 280.647 318.637 244.603 275.236 244.603C272.177 244.603 268.981 244.834 265.17 245.332C248.381 247.525 233.034 255.02 220.795 267.01C205.14 282.337 196.522 302.912 196.522 324.952V330.231L196.694 387.08C196.729 398.237 205.65 407.346 216.583 407.383L306.658 407.664C305.739 411.482 305.273 415.34 305.273 419.152C305.273 445.929 326.612 467.712 352.843 467.712Z" fill="#141A32"/>
<path d="M235.826 497.794H316.892V407.548H235.826V497.794Z" fill="white"/>
<path d="M316.594 495.015H236.123V407.821H316.594V495.015ZM234.746 497.794H317.971C318.731 497.794 319.348 497.172 319.348 496.405V406.431C319.348 405.664 318.731 405.041 317.971 405.041H234.746C233.986 405.041 233.369 405.664 233.369 406.431V496.405C233.369 497.172 233.986 497.794 234.746 497.794Z" fill="#141A32"/>
<path opacity="0.254971" d="M316.892 457.685C306.637 456.548 293.663 450.708 282.5 444.64C295.776 442.881 307.705 436.728 316.892 427.603V457.685Z" fill="#141A32"/>
<path d="M334.905 342.37C346.663 342.37 356.195 352.472 356.195 364.933C356.195 377.394 346.663 387.493 334.905 387.493H334.087V342.37H334.905Z" fill="white"/>
<path d="M336.745 342.694C347.404 342.985 355.994 352.286 355.994 363.678C355.994 375.068 347.404 384.368 336.745 384.662V342.694ZM335.416 387.493H336.224C348.592 387.493 358.652 376.809 358.652 363.678C358.652 350.547 348.592 339.863 336.224 339.863H335.416C334.68 339.863 334.087 340.493 334.087 341.274V386.082C334.087 386.861 334.68 387.493 335.416 387.493Z" fill="#141A32"/>
<path d="M217.813 347.384H218.631V392.507H217.813C206.053 392.507 196.522 382.408 196.522 369.947C196.522 357.485 206.053 347.384 217.813 347.384Z" fill="white"/>
<path d="M215.973 347.708V389.676C205.313 389.382 196.723 380.081 196.723 368.692C196.723 357.299 205.313 347.999 215.973 347.708ZM216.491 392.507H217.302C218.038 392.507 218.631 391.875 218.631 391.095V346.288C218.631 345.506 218.038 344.877 217.302 344.877H216.491C204.125 344.877 194.066 355.561 194.066 368.692C194.066 381.823 204.125 392.507 216.491 392.507Z" fill="white"/>
<path d="M276.778 277.192C280.297 308.244 302.888 334.323 334.087 343.533V378.025V381.849V385.816V388.321C334.087 391.1 333.857 393.774 333.474 396.339C333.679 394.83 333.828 393.304 333.914 391.758L333.782 391.888C330.759 421.804 305.654 445.151 275.13 445.151C272.57 445.151 270.066 444.929 267.592 444.612C254.76 442.958 243.232 437.18 234.354 428.606C224.582 419.169 218.011 406.406 216.506 392.106L216.374 392.123C216.252 390.854 216.174 389.585 216.174 388.321V385.816V381.849V378.025V344.398C249.063 336.106 273.137 309.323 276.778 277.192Z" fill="white"/>
<path d="M332.764 392.385L332.548 392.951C329.559 422.565 304.971 444.897 275.357 444.897C273.122 444.897 270.783 444.729 268.001 444.373C255.74 442.791 244.532 437.39 235.589 428.75C225.788 419.288 219.61 406.647 218.19 393.166L218.012 392.611C217.917 391.485 217.869 390.474 217.869 389.533V346.752C247.721 338.82 270.572 315.318 276.996 286.708C283.139 314.388 304.303 337.051 332.848 345.844V389.533C332.848 390.471 332.818 391.424 332.764 392.385ZM275.357 447.658C304.548 447.658 329.071 426.913 334.451 398.594C334.691 398.384 334.864 398.091 334.912 397.749C335.33 394.966 335.543 392.202 335.543 389.533V344.811C335.543 344.196 335.144 343.654 334.567 343.486C303.864 334.414 281.791 308.872 278.341 278.412C278.263 277.717 277.686 277.192 277.001 277.192C276.316 277.192 275.74 277.717 275.661 278.412C272.112 309.766 248.217 336.256 216.2 344.336C215.599 344.488 215.173 345.04 215.173 345.678V389.533C215.173 390.725 215.243 392.012 215.378 393.461L215.578 394.055C217.179 407.966 223.615 420.983 233.739 430.759C243.103 439.803 254.831 445.458 267.664 447.111C270.562 447.481 273.006 447.658 275.357 447.658Z" fill="#141A32"/>
<path d="M255.479 359.918C255.479 362.685 253.28 364.932 250.567 364.932C247.854 364.932 245.652 362.685 245.652 359.918C245.652 357.15 247.854 354.904 250.567 354.904C253.28 354.904 255.479 357.15 255.479 359.918Z" fill="#141A32"/>
<path d="M309.521 359.918C309.521 362.685 307.323 364.932 304.607 364.932C301.894 364.932 299.695 362.685 299.695 359.918C299.695 357.15 301.894 354.904 304.607 354.904C307.323 354.904 309.521 357.15 309.521 359.918Z" fill="#141A32"/>
<path d="M208.209 374.959C208.503 374.959 208.792 374.863 209.035 374.667L212.999 371.434C213.476 371.043 213.74 370.467 213.716 369.855C213.691 369.243 213.388 368.69 212.88 368.335L208.395 365.17C207.814 364.764 207.011 364.888 206.59 365.459C206.174 366.03 206.308 366.822 206.887 367.233L210.757 369.964L207.385 372.715C206.835 373.162 206.76 373.962 207.217 374.502C207.47 374.804 207.84 374.959 208.209 374.959Z" fill="#141A32"/>
<path d="M344.506 369.945C344.878 369.945 345.248 369.79 345.501 369.488C345.958 368.948 345.883 368.148 345.333 367.702L341.958 364.948L345.829 362.219C346.41 361.808 346.544 361.016 346.126 360.448C345.71 359.874 344.902 359.75 344.326 360.156L339.83 363.326C339.326 363.679 339.022 364.232 339.001 364.844C338.978 365.455 339.239 366.029 339.719 366.42L343.683 369.653C343.925 369.849 344.215 369.945 344.506 369.945Z" fill="#141A32"/>
<path d="M261.901 336.506C260.573 337.562 258.576 337.897 256.665 338.332C254.732 338.729 252.801 339.176 251.137 339.625C249.468 340.071 247.571 340.652 245.7 341.276C243.826 341.856 241.92 342.572 240.265 342.317C238.673 342.091 237.629 340.503 238.752 337.902C239.79 335.388 243.351 332 248.868 330.504C254.385 329.036 259.08 330.209 261.164 331.886C263.36 333.594 263.189 335.508 261.901 336.506Z" fill="#F5F3F0"/>
<path d="M252.534 330.128C255.584 330.128 257.877 330.991 258.912 331.818C259.64 332.38 260.047 332.964 260.044 333.442C260.044 333.769 259.837 333.998 259.66 334.135L259.649 334.143C258.746 334.853 257.283 335.172 255.73 335.507L255.045 335.661C253.139 336.046 251.207 336.493 249.542 336.935C247.874 337.379 245.973 337.955 244.101 338.575L243.45 338.776C241.936 339.254 240.509 339.701 239.396 339.537C239.088 339.492 238.88 339.363 238.766 339.156C238.536 338.749 238.617 338.002 238.984 337.161C239.741 335.336 242.766 332.14 248.031 330.728C249.652 330.301 251.168 330.128 252.534 330.128ZM239.907 342.37C241.362 342.37 242.85 341.901 244.297 341.445L244.958 341.236C246.8 340.626 248.645 340.065 250.266 339.637C251.88 339.207 253.759 338.774 255.634 338.394L256.329 338.24C258.118 337.849 259.968 337.446 261.379 336.342C262.312 335.621 262.848 334.568 262.848 333.442C262.85 332.478 262.469 331.027 260.644 329.622C258.261 327.719 253.195 326.481 247.308 328.029C241.426 329.608 237.594 333.204 236.402 336.071C235.469 338.206 235.841 339.673 236.318 340.52C236.859 341.49 237.835 342.138 238.99 342.3C239.293 342.348 239.598 342.37 239.907 342.37Z" fill="#141A32"/>
<path d="M293.179 336.506C294.376 337.564 296.171 337.897 297.889 338.331C299.63 338.728 301.369 339.174 302.867 339.623C304.367 340.072 306.074 340.651 307.761 341.277C309.445 341.859 311.16 342.572 312.65 342.317C314.083 342.091 315.024 340.504 314.01 337.903C313.078 335.388 309.873 332 304.908 330.505C299.944 329.036 295.718 330.207 293.842 331.884C291.865 333.593 292.018 335.507 293.179 336.506Z" fill="#F5F3F0"/>
<path d="M300.192 330.156C301.555 330.156 303.069 330.328 304.69 330.757C309.931 332.163 312.952 335.348 313.697 337.141C314.071 337.997 314.153 338.736 313.927 339.14C313.811 339.343 313.606 339.468 313.32 339.507C312.226 339.677 310.71 339.211 309.264 338.753L308.59 338.544C306.745 337.934 304.846 337.361 303.182 336.912C301.519 336.472 299.588 336.031 297.658 335.633L297.001 335.489C295.453 335.153 293.991 334.837 293.098 334.131L293.084 334.12C292.832 333.931 292.704 333.702 292.704 333.445C292.704 332.976 293.109 332.395 293.815 331.85C294.858 331.017 297.151 330.156 300.192 330.156ZM312.807 342.37C313.116 342.37 313.425 342.348 313.728 342.302C314.876 342.141 315.854 341.489 316.401 340.521C316.88 339.668 317.248 338.197 316.307 336.04C315.123 333.197 311.291 329.605 305.421 328.03C299.532 326.48 294.467 327.719 292.061 329.631C290.25 331.028 289.867 332.479 289.87 333.448C289.87 334.572 290.408 335.628 291.344 336.35C292.755 337.46 294.606 337.861 296.4 338.251L297.063 338.397C298.962 338.781 300.835 339.213 302.451 339.643C304.067 340.075 305.909 340.631 307.725 341.232L308.411 341.447C309.857 341.901 311.342 342.37 312.807 342.37Z" fill="#141A32"/>
<path d="M250.646 380.983C252.089 379.642 254.194 379.663 255.719 380.885C258.502 383.112 264.45 386.934 272.394 386.828C274.345 386.801 275.594 389.149 274.968 391.187C273.588 395.67 269.395 402.841 258.708 398.872C245.688 394.034 246.89 384.483 250.646 380.983Z" fill="#F9F7F3"/>
<path d="M271.114 387.082C271.626 387.082 271.951 387.409 272.134 387.684C272.468 388.188 272.561 388.862 272.381 389.447C271.138 393.443 267.611 399.616 257.922 396.068C252.432 394.051 249.056 390.92 248.413 387.247C247.922 384.417 249.152 382.122 250.355 381.019C251.292 380.159 252.692 380.145 253.752 380.984C256.655 383.279 262.692 387.085 270.75 387.085L271.114 387.082ZM263.239 400.027C271.164 400.027 274.094 392.948 274.896 390.376C275.358 388.894 275.13 387.253 274.285 385.985C273.512 384.828 272.357 384.191 271.069 384.188L270.75 384.191C263.441 384.191 257.951 380.727 255.311 378.64C253.26 377.016 250.511 377.08 248.642 378.808C246.336 380.923 245.223 384.448 245.805 387.785C246.286 390.538 248.389 395.623 257.077 398.809C259.406 399.666 261.451 400.027 263.239 400.027Z" fill="#141A32"/>
<path d="M256.802 350.182C261.377 350.182 265.099 354.093 265.099 358.904V360.13C265.099 368.146 258.894 374.667 251.27 374.667H243.149C233.808 374.667 226.205 366.676 226.205 356.852C226.205 353.174 229.051 350.182 232.549 350.182H256.802ZM243.149 377.466H251.27C260.363 377.466 267.761 369.691 267.761 360.13V358.904C267.761 352.553 262.847 347.384 256.802 347.384H232.549C227.584 347.384 223.543 351.632 223.543 356.852C223.543 368.218 232.338 377.466 243.149 377.466Z" fill="#5C8AFF"/>
<path d="M322.626 350.182C326.121 350.182 328.969 353.174 328.969 356.852C328.969 366.676 321.367 374.667 312.024 374.667H303.906C296.28 374.667 290.075 368.146 290.075 360.13V358.904C290.075 354.093 293.799 350.182 298.375 350.182H322.626ZM303.906 377.466H312.024C322.836 377.466 331.631 368.218 331.631 356.852C331.631 351.632 327.59 347.384 322.626 347.384H298.375C292.33 347.384 287.413 352.553 287.413 358.904V360.13C287.413 369.691 294.813 377.466 303.906 377.466Z" fill="#5C8AFF"/>
<path d="M288.468 359.914C288.936 359.914 289.395 359.64 289.661 359.138C290.067 358.374 289.86 357.366 289.202 356.896C274.97 346.691 265.809 357.024 265.714 357.128C265.168 357.764 265.168 358.799 265.711 359.435C266.257 360.077 267.139 360.077 267.688 359.444C267.999 359.089 275.451 350.861 287.737 359.673L288.468 359.914Z" fill="#5C8AFF"/>
<path d="M271.658 382.479H271.716L276.313 382.298C284.096 381.989 290.171 375.62 289.857 368.092C289.734 365.238 287.219 363.021 284.278 363.121C282.63 363.235 280.934 362.609 279.675 361.489C278.416 360.367 277.687 358.841 277.618 357.187L277.154 346.211C277.12 345.445 276.472 344.86 275.654 344.877C274.862 344.911 274.242 345.557 274.274 346.328L274.738 357.301C274.838 359.696 275.899 361.91 277.722 363.536C279.548 365.16 281.919 365.968 284.396 365.906C285.733 365.812 286.925 366.884 286.977 368.207C287.23 374.197 282.391 379.271 276.195 379.514L271.598 379.695C270.803 379.728 270.186 380.374 270.218 381.143C270.25 381.892 270.889 382.479 271.658 382.479Z" fill="#141A32"/>
<path d="M334.087 715.891L218.63 715.888L228.223 470.219L275.754 480.237L321.195 470.219L334.087 715.891Z" fill="#FFEC92"/>
<path d="M331.282 715.621H218.961L228.411 473.3L274.248 482.974L274.816 482.971L318.585 473.311L331.282 715.621ZM217.541 718.397H332.722C333.099 718.397 333.456 718.239 333.716 717.961C333.97 717.687 334.106 717.315 334.085 716.934L321.224 471.534C321.205 471.129 321.008 470.751 320.691 470.504C320.374 470.254 319.962 470.166 319.571 470.251L274.521 480.197L227.387 470.249C226.999 470.171 226.587 470.263 226.27 470.516C225.953 470.765 225.759 471.146 225.743 471.554L216.175 716.954C216.162 717.331 216.296 717.698 216.555 717.97C216.812 718.242 217.17 718.397 217.541 718.397Z" fill="#141A32"/>
<path d="M325.103 462.698L326.715 515.011C326.853 519.516 321.703 522.034 318.386 519.084L275.829 481.206C273.957 479.538 271.179 479.52 269.284 481.166L228.148 516.899C224.921 519.702 219.974 517.418 219.866 513.079L218.633 463.098C218.539 459.399 222.151 456.801 225.505 458.153L270.665 476.376C271.868 476.861 273.206 476.852 274.4 476.353L318.177 458.071C321.424 456.714 324.993 459.098 325.103 462.698Z" fill="#141A32"/>
<path d="M324.752 464.154L326.356 516.148C326.404 517.664 325.633 518.956 324.299 519.608C322.965 520.259 321.502 520.055 320.382 519.063L277.969 481.414C275.558 479.277 272.043 479.255 269.617 481.362L228.617 516.878C227.525 517.821 226.101 518.025 224.804 517.431C223.507 516.834 222.713 515.606 222.677 514.15L221.447 464.471C221.416 463.208 221.976 462.069 222.986 461.346C223.991 460.622 225.223 460.468 226.374 460.934L271.387 479.044C272.929 479.664 274.621 479.652 276.152 479.013L319.783 460.843C320.891 460.379 322.107 460.501 323.109 461.169C324.114 461.836 324.713 462.925 324.752 464.157V464.154ZM322.723 522.863C323.661 522.863 324.609 522.65 325.507 522.212C327.848 521.067 329.249 518.712 329.171 516.059L327.567 464.065V464.061C327.496 461.91 326.404 459.923 324.643 458.751C322.884 457.574 320.663 457.357 318.722 458.174L275.093 476.345C274.235 476.7 273.284 476.708 272.414 476.36L227.402 458.246C225.392 457.441 223.135 457.712 221.371 458.98C219.601 460.252 218.576 462.328 218.633 464.543L219.862 514.222C219.927 516.777 221.376 519.014 223.653 520.061C225.927 521.098 228.524 520.73 230.435 519.08L271.432 483.565C272.8 482.382 274.773 482.397 276.126 483.593L318.542 521.242C319.743 522.313 321.221 522.863 322.723 522.863Z" fill="#141A32"/>
<path d="M277.587 496.541C277.587 498.618 275.937 500.301 273.902 500.301C271.867 500.301 270.217 498.618 270.217 496.541C270.217 494.464 271.867 492.781 273.902 492.781C275.937 492.781 277.587 494.464 277.587 496.541Z" fill="#F5F3F0"/>
<path d="M272.674 495.567C273.88 495.567 274.857 496.565 274.857 497.793C274.857 499.024 273.88 500.022 272.674 500.022C271.47 500.022 270.49 499.024 270.49 497.793C270.49 496.565 271.47 495.567 272.674 495.567ZM272.674 502.808C275.384 502.808 277.587 500.56 277.587 497.793C277.587 495.029 275.384 492.781 272.674 492.781C269.964 492.781 267.761 495.029 267.761 497.793C267.761 500.56 269.964 502.808 272.674 502.808Z" fill="#141A32"/>
<path d="M277.587 531.637C277.587 533.714 275.937 535.397 273.902 535.397C271.867 535.397 270.217 533.714 270.217 531.637C270.217 529.56 271.867 527.877 273.902 527.877C275.937 527.877 277.587 529.56 277.587 531.637Z" fill="#F5F3F0"/>
<path d="M272.674 530.662C273.88 530.662 274.857 531.662 274.857 532.891C274.857 534.122 273.88 535.119 272.674 535.119C271.47 535.119 270.49 534.122 270.49 532.891C270.49 531.662 271.47 530.662 272.674 530.662ZM272.674 537.904C275.384 537.904 277.587 535.654 277.587 532.891C277.587 530.128 275.384 527.877 272.674 527.877C269.964 527.877 267.761 530.128 267.761 532.891C267.761 535.654 269.964 537.904 272.674 537.904Z" fill="#141A32"/>
<path d="M490.402 193.63H452.902V207.238H490.402V193.63Z" fill="#5D8AFF" stroke="white"/>
<path d="M508.008 114.247H435.295C425.527 114.247 417.608 122.328 417.608 132.296V177.849C417.608 187.817 425.527 195.898 435.295 195.898H508.008C517.777 195.898 525.695 187.817 525.695 177.849V132.296C525.695 122.328 517.777 114.247 508.008 114.247Z" fill="#5D8AFF" stroke="white"/>
<path d="M417.608 170.949H525.695" stroke="white"/>
<path d="M470.549 186.826C472.986 186.826 474.961 184.795 474.961 182.29C474.961 179.784 472.986 177.753 470.549 177.753C468.113 177.753 466.138 179.784 466.138 182.29C466.138 184.795 468.113 186.826 470.549 186.826Z" fill="#5D8AFF" stroke="white"/>
<path d="M439.667 208.373H502.534" stroke="white"/>
<path fill-rule="evenodd" clip-rule="evenodd" d="M502.348 456.568L514.507 468.977C517.865 472.403 517.865 477.958 514.507 481.385L456.085 541.004C454.812 542.303 453.171 543.162 451.394 543.459L436.856 545.886C432.17 546.669 427.749 543.427 426.982 538.645C426.832 537.706 426.832 536.749 426.982 535.811L429.361 520.975C429.652 519.161 430.493 517.487 431.767 516.188L490.189 456.568C493.547 453.142 498.99 453.142 502.348 456.568Z" fill="#5D8AFF" stroke="white"/>
<path d="M431.021 518.189L454.123 541.765" stroke="white"/>
<path d="M486.605 461.466L509.708 485.042" stroke="white"/>
<path d="M482.98 465.166L506.083 488.741" stroke="white"/>
<path d="M442.572 529.977L494.531 476.953" stroke="white"/>
<path d="M57.1765 350.168L72.792 332.47" stroke="white"/>
<path d="M65.2094 354.175C68.3867 350.574 68.1018 345.026 64.573 341.784C61.0442 338.542 55.6079 338.832 52.4305 342.433L29.4183 368.515C26.2409 372.116 26.5258 377.664 30.0546 380.906C33.5834 384.148 39.0198 383.858 42.1971 380.257L65.2094 354.175Z" fill="#5D8AFF" stroke="white"/>
<path d="M68.7734 338.897C81.8803 350.941 102.073 349.861 113.874 336.485C125.676 323.11 124.617 302.504 111.51 290.461C98.4036 278.417 78.2113 279.497 66.4098 292.873C54.6083 306.248 55.6665 326.854 68.7734 338.897Z" fill="#5D8AFF" stroke="white"/>
<path d="M73.7051 333.308C83.7873 342.572 99.3198 341.741 108.398 331.453C117.476 321.164 116.662 305.313 106.58 296.049C96.4975 286.785 80.965 287.616 71.8869 297.904C62.8088 308.193 63.6228 324.044 73.7051 333.308Z" fill="#5D8AFF" stroke="white"/>
<path fill-rule="evenodd" clip-rule="evenodd" d="M189.494 30.5894C164.827 38.2852 150.647 63.8348 157.787 87.6668C164.927 111.499 189.647 124.912 213 117.626L189.494 30.5894Z" fill="#5D8AFF" stroke="white"/>
<path d="M211.204 111.633C231.314 105.358 242.633 83.6357 236.484 63.1137C230.336 42.5917 209.05 31.0416 188.94 37.3158C168.83 43.59 157.511 65.3126 163.66 85.8346C169.808 106.357 191.094 117.907 211.204 111.633Z" fill="#5D8AFF" stroke="white"/>
<path d="M211.204 111.632C222.881 107.989 227.363 88.3996 221.215 67.8777C215.066 47.3557 200.616 33.6726 188.94 37.3157C177.263 40.9588 172.781 60.5485 178.929 81.0704C185.077 101.592 199.528 115.275 211.204 111.632Z" fill="#5D8AFF" stroke="white"/>
<path fill-rule="evenodd" clip-rule="evenodd" d="M170.67 53.5015C185.959 55.4069 201.324 50.6132 212.955 40.3087Z" fill="#5D8AFF"/>
<path d="M170.67 53.5015C185.959 55.4069 201.324 50.6132 212.955 40.3087" stroke="white"/>
<path fill-rule="evenodd" clip-rule="evenodd" d="M187.907 111.037C199.539 100.733 214.903 95.939 230.193 97.8443Z" fill="#5D8AFF"/>
<path d="M187.907 111.037C199.539 100.733 214.903 95.939 230.193 97.8443" stroke="white"/>
<path d="M164.378 88.2319L237.203 65.511" stroke="white"/>
<path d="M189.494 30.5898L213 117.626" stroke="white"/>
<path d="M196.521 120.514V131.794" stroke="white"/>
<path fill-rule="evenodd" clip-rule="evenodd" d="M176.87 131.794H216.174C220.244 131.794 223.543 135.161 223.543 139.315H169.5C169.5 135.161 172.799 131.794 176.87 131.794Z" fill="#5D8AFF" stroke="white"/>
<g opacity="0.103961" filter="url(#filter0_f_186_1139)">
<path d="M528.152 297.247H415.152C411.082 297.247 407.782 300.614 407.782 304.767V367.438C407.782 371.592 411.082 374.959 415.152 374.959H528.152C532.222 374.959 535.521 371.592 535.521 367.438V304.767C535.521 300.614 532.222 297.247 528.152 297.247Z" fill="black" fill-opacity="0.484862"/>
</g>
<path d="M518.326 254.63H427.435C423.365 254.63 420.065 257.997 420.065 262.15V354.904C420.065 359.057 423.365 362.424 427.435 362.424H518.326C522.396 362.424 525.696 359.057 525.696 354.904V262.15C525.696 257.997 522.396 254.63 518.326 254.63Z" fill="white"/>
<path opacity="0.567481" d="M472.88 344.877C492.552 344.877 508.5 328.603 508.5 308.528C508.5 288.452 492.552 272.178 472.88 272.178C453.208 272.178 437.261 288.452 437.261 308.528C437.261 328.603 453.208 344.877 472.88 344.877Z" fill="#D8D8D8"/>
<path d="M449.543 324.822L460.441 314.243C463.318 311.451 467.534 310.643 471.208 312.182C474.71 313.648 478.738 312.364 480.8 309.124L482.351 306.686C484.04 304.032 486.93 302.43 490.031 302.43C493.142 302.43 496.051 300.86 497.802 298.236L508.499 282.206" stroke="#C7C7C7" stroke-linecap="round"/>
<path d="M174.413 164.384H39.3041C35.234 164.384 31.9346 167.751 31.9346 171.904V234.576C31.9346 238.729 35.234 242.096 39.3041 242.096H174.413C178.483 242.096 181.782 238.729 181.782 234.576V171.904C181.782 167.751 178.483 164.384 174.413 164.384Z" fill="white"/>
<g opacity="0.103961" filter="url(#filter1_f_186_1139)">
<path d="M163.359 176.918H50.3588C46.2887 176.918 42.9893 180.285 42.9893 184.439V247.11C42.9893 251.263 46.2887 254.63 50.3588 254.63H163.359C167.429 254.63 170.728 251.263 170.728 247.11V184.439C170.728 180.285 167.429 176.918 163.359 176.918Z" fill="black" fill-opacity="0.484862"/>
</g>
<path opacity="0.414414" d="M94.5762 174.411H47.9023C45.1889 174.411 42.9893 176.656 42.9893 179.425V227.055C42.9893 229.824 45.1889 232.069 47.9023 232.069H94.5762C97.2896 232.069 99.4893 229.824 99.4893 227.055V179.425C99.4893 176.656 97.2896 174.411 94.5762 174.411Z" fill="#D8D8D8"/>
<path opacity="0.414414" d="M164.587 179.425H108.087C106.731 179.425 105.631 180.547 105.631 181.932C105.631 183.316 106.731 184.439 108.087 184.439H164.587C165.944 184.439 167.044 183.316 167.044 181.932C167.044 180.547 165.944 179.425 164.587 179.425Z" fill="#D8D8D8"/>
<path opacity="0.414414" d="M164.587 217.027H108.087C106.731 217.027 105.631 218.15 105.631 219.534C105.631 220.919 106.731 222.041 108.087 222.041H164.587C165.944 222.041 167.044 220.919 167.044 219.534C167.044 218.15 165.944 217.027 164.587 217.027Z" fill="#D8D8D8"/>
<path opacity="0.414414" d="M125.283 191.959H108.087C106.731 191.959 105.631 193.081 105.631 194.466C105.631 195.85 106.731 196.973 108.087 196.973H125.283C126.64 196.973 127.74 195.85 127.74 194.466C127.74 193.081 126.64 191.959 125.283 191.959Z" fill="#D8D8D8"/>
<path opacity="0.414414" d="M135.109 207H108.087C106.731 207 105.631 208.122 105.631 209.507C105.631 210.891 106.731 212.014 108.087 212.014H135.109C136.466 212.014 137.566 210.891 137.566 209.507C137.566 208.122 136.466 207 135.109 207Z" fill="#D8D8D8"/>
<path opacity="0.414414" d="M164.587 207H144.935C143.578 207 142.479 208.122 142.479 209.507C142.479 210.891 143.578 212.014 144.935 212.014H164.587C165.944 212.014 167.044 210.891 167.044 209.507C167.044 208.122 165.944 207 164.587 207Z" fill="#D8D8D8"/>
<path opacity="0.14706" fill-rule="evenodd" clip-rule="evenodd" d="M59.2749 207.423L63.6857 201.122C64.4743 199.995 66.0085 199.734 67.1125 200.539C67.2226 200.619 67.326 200.708 67.4217 200.806L70.2145 203.656C71.1739 204.635 72.7293 204.635 73.6886 203.656C73.8378 203.504 73.9671 203.333 74.0734 203.147L76.6045 198.719C77.2881 197.523 78.7923 197.119 79.9642 197.817C80.3155 198.026 80.6104 198.321 80.8225 198.675L86.1512 207.573C86.8586 208.754 86.4937 210.297 85.336 211.019C84.9503 211.26 84.5071 211.387 84.0551 211.387H61.2739C59.9172 211.387 58.8174 210.265 58.8174 208.88C58.8174 208.358 58.9774 207.848 59.2749 207.423Z" fill="#131313"/>
<path d="M71.2387 199.48C72.5954 199.48 73.6953 198.357 73.6953 196.973C73.6953 195.588 72.5954 194.466 71.2387 194.466C69.882 194.466 68.7822 195.588 68.7822 196.973C68.7822 198.357 69.882 199.48 71.2387 199.48Z" fill="#CECECE"/>
</g>
<defs>
<filter id="filter0_f_186_1139" x="397.782" y="287.247" width="147.739" height="97.7124" filterUnits="userSpaceOnUse" color-interpolation-filters="sRGB">
<feFlood flood-opacity="0" result="BackgroundImageFix"/>
<feBlend mode="normal" in="SourceGraphic" in2="BackgroundImageFix" result="shape"/>
<feGaussianBlur stdDeviation="5" result="effect1_foregroundBlur_186_1139"/>
</filter>
<filter id="filter1_f_186_1139" x="32.9893" y="166.918" width="147.739" height="97.7124" filterUnits="userSpaceOnUse" color-interpolation-filters="sRGB">
<feFlood flood-opacity="0" result="BackgroundImageFix"/>
<feBlend mode="normal" in="SourceGraphic" in2="BackgroundImageFix" result="shape"/>
<feGaussianBlur stdDeviation="5" result="effect1_foregroundBlur_186_1139"/>
</filter>
<linearGradient id="paint0_linear_186_1139" x1="276.371" y1="24" x2="276.216" y2="574.486" gradientUnits="userSpaceOnUse">
<stop stop-color="white"/>
<stop offset="1" stop-color="white"/>
</linearGradient>
<linearGradient id="paint1_linear_186_1139" x1="276.371" y1="24" x2="276.37" y2="53.2811" gradientUnits="userSpaceOnUse">
<stop stop-color="white"/>
<stop offset="1" stop-color="white"/>
</linearGradient>
</defs>
</svg>
