<svg width="565" height="549" viewBox="0 0 565 549" fill="none" xmlns="http://www.w3.org/2000/svg">
<mask id="mask0_176_838" style="mask-type:alpha" maskUnits="userSpaceOnUse" x="0" y="0" width="565" height="549">
<path d="M565 0H0V549H565V0Z" fill="white"/>
</mask>
<g mask="url(#mask0_176_838)">
<path fill-rule="evenodd" clip-rule="evenodd" d="M454.091 78.1074V68.0996C454.091 67.4923 453.598 67 452.991 67H441.176C434.044 67 428.262 72.782 428.262 79.9144V89.7379H418.372C417.765 89.7379 417.272 90.2302 417.272 90.8376V103.543C417.272 104.15 417.765 104.642 418.372 104.642H427.162C427.77 104.642 428.262 105.135 428.262 105.742V131.898C428.262 132.657 428.877 133.273 429.636 133.273H440.537C441.296 133.273 441.911 132.657 441.911 131.898V105.742C441.911 105.135 442.404 104.642 443.011 104.642H452.991C453.598 104.642 454.091 104.15 454.091 103.543V90.8376C454.091 90.2302 453.598 89.7379 452.991 89.7379H443.011C442.404 89.7379 441.911 89.2456 441.911 88.6383V82.5503C441.911 80.7357 443.377 79.2618 445.191 79.2515L452.997 79.2071C453.602 79.2036 454.091 78.7123 454.091 78.1074Z" fill="#537CE6" stroke="white"/>
<path opacity="0.447027" fill-rule="evenodd" clip-rule="evenodd" d="M211.281 459.456C246.485 455.001 311.784 453.992 348.352 459.456C359.96 461.19 370.967 463.626 381.371 466.763L377.36 474.718H386.607L382.824 467.207C388.662 469.014 394.308 471.043 399.763 473.296L400.478 474.718L400.947 473.79C408.887 477.134 416.417 480.955 423.537 485.255L425.908 489.958L427.148 487.498C434.168 491.985 440.773 496.956 446.964 502.411L444.403 507.49L452.465 507.489C454.496 509.454 456.479 511.476 458.413 513.554L451.339 513.556L455.962 522.729L459.817 515.081C468.611 524.772 476.379 535.66 483.119 547.744L483.118 563.858L476.769 563.86L481.393 573.033L483.118 569.606L483.119 590.727L394.426 588.404L393.738 587.883L398.166 579.099H388.919L393.104 587.404L380.604 577.948V588.404H142.17V577.948L130.893 586.476L134.616 579.099H125.368L129.584 587.468L128.348 588.404H70.755L70.7539 588.271L79.1312 588.272L74.5075 579.099L70.7539 586.543V566.717L72.1956 563.86L70.7539 563.858L70.755 547.744C84.1432 529.179 96.9235 514.291 109.096 503.082L106.873 507.49H116.121L112.404 500.113C115.849 497.103 119.243 494.393 122.588 491.983C125.383 489.97 128.346 487.797 131.687 485.55L132.754 484.839C137.787 481.514 143.685 478.049 151.115 474.717L160.046 474.718L158.504 471.659C162.119 470.279 166.053 468.94 170.358 467.662L173.917 474.718L178.541 465.545L178.078 465.545C187.448 463.173 198.381 461.088 211.281 459.456ZM472.145 579.099H462.898L467.522 588.272L472.145 579.099ZM449.027 579.099L444.403 588.272H453.65L449.027 579.099ZM435.156 579.099H425.908L430.532 588.272L435.156 579.099ZM412.037 579.099L407.414 588.272H416.661L412.037 579.099ZM375.048 579.099L370.424 588.272H379.671L375.048 579.099ZM361.177 579.099H351.929L356.553 588.272L361.177 579.099ZM338.058 579.099L333.434 588.272H342.682L338.058 579.099ZM321.875 579.099H312.628L317.251 588.272L321.875 579.099ZM298.757 579.099L294.133 588.272H303.38L298.757 579.099ZM284.886 579.099H275.638L280.262 588.272L284.886 579.099ZM261.767 579.099L257.143 588.272H266.391L261.767 579.099ZM247.896 579.099H238.649L243.272 588.272L247.896 579.099ZM224.778 579.099L220.154 588.272H229.401L224.778 579.099ZM210.906 579.099H201.659L206.283 588.272L210.906 579.099ZM187.788 579.099L183.164 588.272H192.412L187.788 579.099ZM171.605 579.099H162.358L166.981 588.272L171.605 579.099ZM148.487 579.099L143.863 588.272H153.11L148.487 579.099ZM111.497 579.099L106.873 588.272H116.121L111.497 579.099ZM97.626 579.099H88.3786L93.0023 588.272L97.626 579.099ZM298.757 563.86H289.509L294.133 573.033L298.757 563.86ZM462.898 563.86L458.274 573.033H467.522L462.898 563.86ZM449.027 563.86H439.779L444.403 573.033L449.027 563.86ZM425.908 563.86L421.285 573.033H430.532L425.908 563.86ZM409.725 563.86H400.478L405.102 573.033L409.725 563.86ZM386.607 563.86L381.983 573.033H391.231L386.607 563.86ZM372.736 563.86H363.488L368.112 573.033L372.736 563.86ZM349.617 563.86L344.994 573.033H354.241L349.617 563.86ZM335.746 563.86H326.499L331.123 573.033L335.746 563.86ZM312.628 563.86L308.004 573.033H317.251L312.628 563.86ZM273.326 563.86L268.703 573.033H277.95L273.326 563.86ZM259.455 563.86H250.208L254.832 573.033L259.455 563.86ZM236.337 563.86L231.713 573.033H240.961L236.337 563.86ZM222.466 563.86H213.218L217.842 573.033L222.466 563.86ZM199.347 563.86L194.724 573.033H203.971L199.347 563.86ZM185.476 563.86H176.229L180.852 573.033L185.476 563.86ZM162.358 563.86L157.734 573.033H166.981L162.358 563.86ZM148.487 563.86H139.239L143.863 573.033L148.487 563.86ZM123.056 563.86L118.433 573.033H127.68L123.056 563.86ZM109.185 563.86H99.9378L104.561 573.033L109.185 563.86ZM86.0667 563.86L81.443 573.033H90.6904L86.0667 563.86ZM479.081 546.328H469.833L474.457 555.501L479.081 546.328ZM455.962 546.328L451.339 555.501H460.586L455.962 546.328ZM442.091 546.328H432.844L437.468 555.501L442.091 546.328ZM418.973 546.328L414.349 555.501H423.596L418.973 546.328ZM405.102 546.328H395.854L400.478 555.501L405.102 546.328ZM381.983 546.328L377.36 555.501H386.607L381.983 546.328ZM365.8 546.328H356.553L361.177 555.501L365.8 546.328ZM342.682 546.328L338.058 555.501H347.306L342.682 546.328ZM328.811 546.328H319.563L324.187 555.501L328.811 546.328ZM305.692 546.328L301.069 555.501H310.316L305.692 546.328ZM291.821 546.328H282.574L287.197 555.501L291.821 546.328ZM268.703 546.328L264.079 555.501H273.326L268.703 546.328ZM254.832 546.328H245.584L250.208 555.501L254.832 546.328ZM231.713 546.328L227.089 555.501H236.337L231.713 546.328ZM215.53 546.328H206.283L210.906 555.501L215.53 546.328ZM192.412 546.328L187.788 555.501H197.035L192.412 546.328ZM178.541 546.328H169.293L173.917 555.501L178.541 546.328ZM155.422 546.328L150.798 555.501H160.046L155.422 546.328ZM141.551 546.328H132.304L136.927 555.501L141.551 546.328ZM118.433 546.328L113.809 555.501H123.056L118.433 546.328ZM104.561 546.328H95.3141L99.9378 555.501L104.561 546.328ZM79.1312 546.328L74.5075 555.501H83.7549L79.1312 546.328ZM467.522 531.089L462.898 540.262H472.145L467.522 531.089ZM453.65 531.089H444.403L449.027 540.262L453.65 531.089ZM430.532 531.089L425.908 540.262H435.156L430.532 531.089ZM416.661 531.089H407.414L412.037 540.262L416.661 531.089ZM393.542 531.089L388.919 540.262H398.166L393.542 531.089ZM379.671 531.089H370.424L375.048 540.262L379.671 531.089ZM356.553 531.089L351.929 540.262H361.177L356.553 531.089ZM342.682 531.089H333.434L338.058 540.262L342.682 531.089ZM317.251 531.089L312.628 540.262H321.875L317.251 531.089ZM93.0023 531.089L88.3786 540.262H97.626L93.0023 531.089ZM303.38 531.089H294.133L298.757 540.262L303.38 531.089ZM280.262 531.089L275.638 540.262H284.886L280.262 531.089ZM266.391 531.089H257.143L261.767 540.262L266.391 531.089ZM243.272 531.089L238.649 540.262H247.896L243.272 531.089ZM229.401 531.089H220.154L224.778 540.262L229.401 531.089ZM206.283 531.089L201.659 540.262H210.906L206.283 531.089ZM192.412 531.089H183.164L187.788 540.262L192.412 531.089ZM166.981 531.089L162.358 540.262H171.605L166.981 531.089ZM153.11 531.089H143.863L148.487 540.262L153.11 531.089ZM129.992 531.089L125.368 540.262H134.616L129.992 531.089ZM116.121 531.089H106.873L111.497 540.262L116.121 531.089ZM437.468 513.556L432.844 522.729H442.091L437.468 513.556ZM423.596 513.556H414.349L418.973 522.729L423.596 513.556ZM400.478 513.556L395.854 522.729H405.102L400.478 513.556ZM386.607 513.556H377.36L381.983 522.729L386.607 513.556ZM361.177 513.556L356.553 522.729H365.8L361.177 513.556ZM347.306 513.556H338.058L342.682 522.729L347.306 513.556ZM324.187 513.556L319.563 522.729H328.811L324.187 513.556ZM310.316 513.556H301.069L305.692 522.729L310.316 513.556ZM287.197 513.556L282.574 522.729H291.821L287.197 513.556ZM273.326 513.556H264.079L268.703 522.729L273.326 513.556ZM250.208 513.556L245.584 522.729H254.832L250.208 513.556ZM236.337 513.556H227.089L231.713 522.729L236.337 513.556ZM210.906 513.556L206.283 522.729H215.53L210.906 513.556ZM197.035 513.556H187.788L192.412 522.729L197.035 513.556ZM173.917 513.556L169.293 522.729H178.541L173.917 513.556ZM160.046 513.556H150.798L155.422 522.729L160.046 513.556ZM136.927 513.556L132.304 522.729H141.551L136.927 513.556ZM123.056 513.556H113.809L118.433 522.729L123.056 513.556ZM99.9378 513.556L95.3141 522.729H104.561L99.9378 513.556ZM435.156 498.317H425.908L430.532 507.49L435.156 498.317ZM412.037 498.317L407.414 507.49H416.661L412.037 498.317ZM398.166 498.317H388.919L393.542 507.49L398.166 498.317ZM375.048 498.317L370.424 507.49H379.671L375.048 498.317ZM361.177 498.317H351.929L356.553 507.49L361.177 498.317ZM338.058 498.317L333.434 507.49H342.682L338.058 498.317ZM321.875 498.317H312.628L317.251 507.49L321.875 498.317ZM298.757 498.317L294.133 507.49H303.38L298.757 498.317ZM284.886 498.317H275.638L280.262 507.49L284.886 498.317ZM261.767 498.317L257.143 507.49H266.391L261.767 498.317ZM247.896 498.317H238.649L243.272 507.49L247.896 498.317ZM224.778 498.317L220.154 507.49H229.401L224.778 498.317ZM210.906 498.317H201.659L206.283 507.49L210.906 498.317ZM187.788 498.317L183.164 507.49H192.412L187.788 498.317ZM171.605 498.317H162.358L166.981 507.49L171.605 498.317ZM148.487 498.317L143.863 507.49H153.11L148.487 498.317ZM134.616 498.317H125.368L129.992 507.49L134.616 498.317ZM405.102 480.784L400.478 489.958H409.725L405.102 480.784ZM391.231 480.784H381.983L386.607 489.958L391.231 480.784ZM368.112 480.784L363.488 489.958H372.736L368.112 480.784ZM354.241 480.784H344.994L349.617 489.958L354.241 480.784ZM331.123 480.784L326.499 489.958H335.746L331.123 480.784ZM317.251 480.784H308.004L312.628 489.958L317.251 480.784ZM294.133 480.784L289.509 489.958H298.757L294.133 480.784ZM277.95 480.784H268.703L273.326 489.958L277.95 480.784ZM254.832 480.784L250.208 489.958H259.455L254.832 480.784ZM240.961 480.784H231.713L236.337 489.958L240.961 480.784ZM217.842 480.784L213.218 489.958H222.466L217.842 480.784ZM203.971 480.784H194.724L199.347 489.958L203.971 480.784ZM180.852 480.784L176.229 489.958H185.476L180.852 480.784ZM166.981 480.784H157.734L162.358 489.958L166.981 480.784ZM143.863 480.784L139.239 489.958H148.487L143.863 480.784ZM365.8 465.545H356.553L361.177 474.718L365.8 465.545ZM342.682 465.545L338.058 474.718H347.306L342.682 465.545ZM328.811 465.545H319.563L324.187 474.718L328.811 465.545ZM305.692 465.545L301.069 474.718H310.316L305.692 465.545ZM291.821 465.545H282.574L287.197 474.718L291.821 465.545ZM268.703 465.545L264.079 474.718H273.326L268.703 465.545ZM254.832 465.545H245.584L250.208 474.718L254.832 465.545ZM231.713 465.545L227.089 474.718H236.337L231.713 465.545ZM215.53 465.545H206.283L210.906 474.718L215.53 465.545ZM192.412 465.545L187.788 474.718H197.035L192.412 465.545Z" fill="#5D8AFF" stroke="#141A32" stroke-width="0.1"/>
<path d="M482.727 549.327C450.903 494.926 392.833 461.251 329.81 460.652L310.034 460.464" stroke="black" stroke-opacity="0.514793"/>
<path d="M69.5713 549.327C101.394 494.926 159.465 461.251 222.488 460.652L242.264 460.464" stroke="black" stroke-opacity="0.514793"/>
<path d="M69.5713 659.894V52.8545C69.5713 28.6343 89.2056 9 113.426 9H438.873C463.093 9 482.727 28.6343 482.727 52.8545V659.894" stroke="url(#paint0_linear_176_838)" stroke-opacity="0.514793"/>
<g opacity="0.103961" filter="url(#filter0_f_176_838)">
<path d="M500.9 189.258H353.765C351.053 189.258 348.855 191.456 348.855 194.167V246.669C348.855 249.38 351.053 251.578 353.765 251.578H500.9C503.611 251.578 505.809 249.38 505.809 246.669V194.167C505.809 191.456 503.611 189.258 500.9 189.258Z" fill="black" fill-opacity="0.484862"/>
</g>
<g opacity="0.103961" filter="url(#filter1_f_176_838)">
<path d="M119.494 110.782H56.578C53.8668 110.782 51.6689 112.98 51.6689 115.691V225.896C51.6689 228.607 53.8668 230.805 56.578 230.805H119.494C122.205 230.805 124.403 228.607 124.403 225.896V115.691C124.403 112.98 122.205 110.782 119.494 110.782Z" fill="black" fill-opacity="0.484862"/>
</g>
<g opacity="0.103961" filter="url(#filter2_f_176_838)">
<path fill-rule="evenodd" clip-rule="evenodd" d="M92.4257 436.229H197.971C200.682 436.229 202.88 438.426 202.88 441.138V497.084C202.88 499.795 200.682 501.993 197.971 501.993H92.4257C89.7145 501.993 87.5166 499.795 87.5166 497.084V441.138C87.5166 438.426 89.7145 436.229 92.4257 436.229Z" fill="black" fill-opacity="0.484862"/>
</g>
<path d="M512.147 170.793H342.516C337.094 170.793 332.698 175.189 332.698 180.612V227.911C332.698 233.334 337.094 237.729 342.516 237.729H512.147C517.569 237.729 521.965 233.334 521.965 227.911V180.612C521.965 175.189 517.569 170.793 512.147 170.793Z" fill="white"/>
<path d="M122.073 96.9331H53.9998C48.5774 96.9331 44.1816 101.329 44.1816 106.751V207.138C44.1816 212.56 48.5774 216.956 53.9998 216.956H122.073C127.495 216.956 131.891 212.56 131.891 207.138V106.751C131.891 101.329 127.495 96.9331 122.073 96.9331Z" fill="white"/>
<path d="M88.0364 152.328C98.2343 152.328 106.501 144.061 106.501 133.863C106.501 123.665 98.2343 115.398 88.0364 115.398C77.8384 115.398 69.5713 123.665 69.5713 133.863C69.5713 144.061 77.8384 152.328 88.0364 152.328Z" fill="#EFEFEF"/>
<path d="M116.888 163.869H59.1849C57.2727 163.869 55.7227 165.419 55.7227 167.331C55.7227 169.243 57.2727 170.793 59.1849 170.793H116.888C118.8 170.793 120.35 169.243 120.35 167.331C120.35 165.419 118.8 163.869 116.888 163.869Z" fill="#EFEFEF"/>
<path d="M116.888 175.41H59.1849C57.2727 175.41 55.7227 176.96 55.7227 178.872C55.7227 180.784 57.2727 182.334 59.1849 182.334H116.888C118.8 182.334 120.35 180.784 120.35 178.872C120.35 176.96 118.8 175.41 116.888 175.41Z" fill="#EFEFEF"/>
<path d="M84.5743 186.95H59.1849C57.2727 186.95 55.7227 188.5 55.7227 190.412C55.7227 192.325 57.2727 193.875 59.1849 193.875H84.5743C86.4865 193.875 88.0365 192.325 88.0365 190.412C88.0365 188.5 86.4865 186.95 84.5743 186.95Z" fill="#EFEFEF"/>
<mask id="mask1_176_838" style="mask-type:alpha" maskUnits="userSpaceOnUse" x="78" y="421" width="134" height="74">
<path d="M88.3631 421.364H201.272C206.695 421.364 211.09 425.76 211.09 431.182V484.674C211.09 490.096 206.695 494.492 201.272 494.492H88.3631C82.9407 494.492 78.5449 490.096 78.5449 484.674V431.182C78.5449 425.76 82.9407 421.364 88.3631 421.364Z" fill="white"/>
</mask>
<g mask="url(#mask1_176_838)">
<path d="M88.3631 421.364H201.272C206.695 421.364 211.09 425.76 211.09 431.182V484.674C211.09 490.096 206.695 494.492 201.272 494.492H88.3631C82.9407 494.492 78.5449 490.096 78.5449 484.674V431.182C78.5449 425.76 82.9407 421.364 88.3631 421.364Z" fill="white"/>
<g opacity="0.567481">
<path d="M186.545 468H130.091C127.38 468 125.182 470.198 125.182 472.909C125.182 475.62 127.38 477.818 130.091 477.818H186.545C189.256 477.818 191.454 475.62 191.454 472.909C191.454 470.198 189.256 468 186.545 468Z" fill="#D8D8D8"/>
<path d="M186.545 453.273H130.091C127.38 453.273 125.182 455.471 125.182 458.182C125.182 460.893 127.38 463.091 130.091 463.091H186.545C189.256 463.091 191.454 460.893 191.454 458.182C191.454 455.471 189.256 453.273 186.545 453.273Z" fill="#D8D8D8"/>
</g>
<path fill-rule="evenodd" clip-rule="evenodd" d="M211.09 418.909V440.492H78.5449L78.5449 418.909H211.09Z" fill="#D3D3D3"/>
<path d="M88.9764 434.864C90.6709 434.864 92.0446 433.49 92.0446 431.796C92.0446 430.101 90.6709 428.728 88.9764 428.728C87.2819 428.728 85.9082 430.101 85.9082 431.796C85.9082 433.49 87.2819 434.864 88.9764 434.864Z" fill="white"/>
<path opacity="0.567481" d="M112.909 448.364H95.7269C91.6601 448.364 88.3633 451.661 88.3633 455.727V470.455C88.3633 474.522 91.6601 477.818 95.7269 477.818H112.909C116.976 477.818 120.272 474.522 120.272 470.455V455.727C120.272 451.661 116.976 448.364 112.909 448.364Z" fill="#D8D8D8"/>
<path d="M98.7947 434.864C100.489 434.864 101.863 433.49 101.863 431.796C101.863 430.101 100.489 428.728 98.7947 428.728C97.1002 428.728 95.7266 430.101 95.7266 431.796C95.7266 433.49 97.1002 434.864 98.7947 434.864Z" fill="white"/>
<path d="M108.613 434.864C110.308 434.864 111.681 433.49 111.681 431.796C111.681 430.101 110.308 428.728 108.613 428.728C106.919 428.728 105.545 430.101 105.545 431.796C105.545 433.49 106.919 434.864 108.613 434.864Z" fill="white"/>
</g>
<path d="M315.388 332.363C345.344 332.363 369.629 308.078 369.629 278.122C369.629 248.165 345.344 223.88 315.388 223.88C285.431 223.88 261.146 248.165 261.146 278.122C261.146 308.078 285.431 332.363 315.388 332.363Z" fill="#141A32"/>
<path d="M213.83 346.211C243.787 346.211 268.071 321.927 268.071 291.97C268.071 262.014 243.787 237.729 213.83 237.729C183.873 237.729 159.589 262.014 159.589 291.97C159.589 321.927 183.873 346.211 213.83 346.211Z" fill="#141A32"/>
<path d="M338.469 341.595C355.04 341.595 368.474 328.161 368.474 311.589C368.474 295.018 355.04 281.583 338.469 281.583C321.897 281.583 308.463 295.018 308.463 311.589C308.463 328.161 321.897 341.595 338.469 341.595Z" fill="#141A32"/>
<path d="M253.068 276.968C269.64 276.968 283.074 263.533 283.074 246.962C283.074 230.39 269.64 216.956 253.068 216.956C236.497 216.956 223.062 230.39 223.062 246.962C223.062 263.533 236.497 276.968 253.068 276.968Z" fill="#141A32"/>
<path d="M281.918 502.011C302.314 502.011 318.85 486.077 318.85 466.422V392.191C318.85 372.535 302.314 356.598 281.918 356.598C261.522 356.598 244.989 372.535 244.989 392.191V466.422C244.989 486.077 261.522 502.011 281.918 502.011Z" fill="white"/>
<path d="M283.072 357.546C302.699 357.546 318.665 372.885 318.665 391.741V465.712C318.665 484.569 302.699 499.909 283.072 499.909C263.449 499.909 247.483 484.569 247.483 465.712V391.741C247.483 372.885 263.449 357.546 283.072 357.546ZM283.072 502.364C304.051 502.364 321.119 485.9 321.119 465.669V391.784C321.119 371.55 304.051 355.091 283.072 355.091C262.096 355.091 245.028 371.55 245.028 391.784V465.669C245.028 485.9 262.096 502.364 283.072 502.364Z" fill="#141A32"/>
<path opacity="0.254971" d="M318.85 441.999C309.902 441.039 298.581 436.109 288.844 430.988C300.427 429.504 310.835 424.31 318.85 416.61V441.999Z" fill="#141A32"/>
<path d="M338.083 335.825C349.132 335.825 358.088 344.608 358.088 355.444C358.088 366.28 349.132 375.063 338.083 375.063H337.315V335.825H338.083Z" fill="white"/>
<path d="M338.727 335.454C348.247 335.735 355.909 343.884 355.909 353.865C355.909 363.842 348.247 371.992 338.727 372.273V335.454ZM339.824 374.727H340.47C350.335 374.727 358.363 365.368 358.363 353.865C358.363 342.359 350.335 333 340.47 333H339.824C339.219 333 338.727 333.57 338.727 334.279V373.447C338.727 374.156 339.219 374.727 339.824 374.727Z" fill="#141A32"/>
<path d="M232.722 335.825H233.448V375.063H232.722C222.277 375.063 213.812 366.28 213.812 355.444C213.812 344.608 222.277 335.825 232.722 335.825Z" fill="white"/>
<path d="M232.755 335.454V372.273C223.235 371.992 215.573 363.842 215.573 353.865C215.573 343.884 223.235 335.735 232.755 335.454ZM231.012 374.727H231.658C232.265 374.727 232.755 374.156 232.755 373.447V334.279C232.755 333.57 232.265 333 231.658 333H231.012C221.145 333 213.119 342.359 213.119 353.865C213.119 365.368 221.145 374.727 231.012 374.727Z" fill="#141A32"/>
<path d="M263.272 294.838C264.589 294.61 266.004 294.42 267.522 294.279C274.618 315.706 294.939 331.185 318.943 331.185C319.546 331.185 320.129 331.117 320.727 331.097C322.366 337.652 330.678 338.146 337.314 337.432V375.914V379.474C337.314 394.591 331.016 408.207 320.943 417.905C312.95 425.605 302.57 430.796 291.017 432.283C288.787 432.569 286.532 432.767 284.226 432.767C254.907 432.767 231.14 408.906 231.14 379.474V375.914V341.722C247.433 331.793 259.241 314.769 263.272 294.838Z" fill="white"/>
<path d="M336.273 337.415V378.547C336.273 392.983 330.628 406.464 320.379 416.502C312.366 424.352 302.318 429.262 291.322 430.702C288.811 431.027 286.716 431.182 284.729 431.182C256.306 431.182 233.182 407.568 233.182 378.547V341.066C249.261 330.857 260.779 313.792 264.939 294.037C265.679 293.919 266.449 293.817 267.252 293.727C274.972 316.047 295.743 330.97 319.258 330.97C319.549 330.97 319.838 330.954 320.129 330.939C321.483 334.618 325.477 338.266 336.273 337.415ZM284.729 433.636C286.822 433.636 289.017 433.477 291.634 433.137C303.155 431.632 313.682 426.493 322.078 418.277C332.815 407.773 338.728 393.667 338.728 378.559V336.113C338.728 335.75 338.577 335.405 338.311 335.162C338.051 334.919 337.695 334.801 337.344 334.842C331.204 335.504 323.614 335.111 322.211 329.405C322.068 328.822 321.577 328.433 320.953 328.439C320.692 328.449 320.431 328.467 320.173 328.485C319.86 328.505 319.544 328.528 319.223 328.528C296.471 328.528 276.418 313.908 269.32 292.143C269.137 291.581 268.576 291.248 268.012 291.273C266.47 291.425 265.034 291.617 263.696 291.852C263.187 291.941 262.783 292.34 262.678 292.856C258.773 312.487 247.347 329.436 231.332 339.352C230.956 339.582 230.728 339.999 230.728 340.443V378.559C230.728 408.926 254.951 433.636 284.729 433.636Z" fill="#141A32"/>
<path d="M223.677 361.214C223.955 361.214 224.238 361.123 224.47 360.938L228.15 357.988C228.602 357.625 228.853 357.088 228.831 356.519C228.811 355.95 228.523 355.431 228.045 355.098L223.876 352.207C223.317 351.821 222.544 351.943 222.141 352.481C221.741 353.021 221.868 353.77 222.424 354.157L225.97 356.615L222.884 359.09C222.355 359.515 222.28 360.269 222.72 360.78C222.966 361.066 223.319 361.214 223.677 361.214Z" fill="#141A32"/>
<path d="M343.224 357.545H343.197H343.224ZM346.235 362.455C346.615 362.455 346.993 362.296 347.251 361.993C347.719 361.449 347.642 360.647 347.08 360.195L343.799 357.564L347.566 354.95C348.16 354.539 348.297 353.742 347.872 353.17C347.444 352.593 346.618 352.466 346.029 352.877L341.597 355.95C341.084 356.305 340.778 356.856 340.757 357.461C340.733 358.066 341 358.638 341.483 359.024L345.392 362.161C345.64 362.358 345.939 362.455 346.235 362.455Z" fill="#141A32"/>
<path d="M263.454 354.29C263.454 356.842 261.387 358.906 258.838 358.906C256.289 358.906 254.222 356.842 254.222 354.29C254.222 351.741 256.289 349.674 258.838 349.674C261.387 349.674 263.454 351.741 263.454 354.29Z" fill="#141A32"/>
<path d="M311.925 354.29C311.925 356.842 309.86 358.906 307.307 358.906C304.757 358.906 302.692 356.842 302.692 354.29C302.692 351.741 304.757 349.674 307.307 349.674C309.86 349.674 311.925 351.741 311.925 354.29Z" fill="#141A32"/>
<path d="M269.578 338.43C268.454 339.208 266.767 339.455 265.152 339.773C263.517 340.067 261.884 340.397 260.476 340.727C259.066 341.056 257.459 341.485 255.877 341.945C254.293 342.373 252.683 342.898 251.283 342.71C249.936 342.544 249.053 341.375 250.003 339.459C250.881 337.606 253.891 335.11 258.557 334.009C263.223 332.927 267.192 333.791 268.956 335.025C270.811 336.285 270.668 337.694 269.578 338.43Z" fill="#141A32"/>
<path d="M298.876 338.429C300.001 339.208 301.69 339.455 303.304 339.773C304.939 340.066 306.572 340.395 307.979 340.727C309.391 341.056 310.995 341.483 312.58 341.944C314.161 342.373 315.775 342.898 317.174 342.71C318.519 342.544 319.403 341.374 318.452 339.46C317.576 337.606 314.565 335.111 309.899 334.009C305.235 332.928 301.263 333.789 299.501 335.024C297.643 336.285 297.788 337.693 298.876 338.429Z" fill="#141A32"/>
<path d="M278.665 372.755H278.668L282.254 372.748C285.259 372.74 288.079 371.671 290.196 369.745C292.31 367.821 293.471 365.267 293.46 362.553C293.457 361.49 292.994 360.489 292.157 359.737C291.326 358.987 290.218 358.575 289.043 358.575H289.016C286.403 358.575 284.272 356.649 284.264 354.281L284.234 346.278C284.232 345.604 283.624 345.057 282.872 345.057H282.867C282.117 345.06 281.507 345.611 281.51 346.288L281.54 354.291C281.553 358.007 284.905 361.026 289.019 361.026H289.041C289.49 361.026 289.912 361.183 290.231 361.47C290.553 361.759 290.733 362.149 290.735 362.563C290.743 364.622 289.863 366.561 288.259 368.024C286.657 369.483 284.52 370.292 282.248 370.296L278.663 370.304C277.911 370.306 277.3 370.853 277.303 371.532C277.306 372.208 277.916 372.755 278.665 372.755Z" fill="#141A32"/>
<path d="M278.571 388.912C279.797 388.912 280.6 388.833 280.708 388.823C281.451 388.749 281.991 388.123 281.912 387.422C281.834 386.717 281.167 386.198 280.423 386.283C280.339 386.29 272.103 387.044 267.298 383.211C265.209 381.55 264.051 379.212 263.856 376.266C263.807 375.566 263.243 374.983 262.419 375.072C261.67 375.116 261.101 375.721 261.15 376.427C261.394 380.096 262.877 383.04 265.554 385.171C269.643 388.424 275.463 388.912 278.571 388.912Z" fill="#141A32"/>
<path d="M321.158 592.028V462.772H238.065V592.028H321.158Z" fill="#86CE7D"/>
<path d="M321.119 593.182H240.119V465.545H321.119V593.182ZM238.939 593.182H322.299C323.002 593.182 323.573 592.965 323.573 592.696V463.576C323.573 463.309 323.002 463.091 322.299 463.091H238.939C238.233 463.091 237.664 463.309 237.664 463.576V592.696C237.664 592.965 238.233 593.182 238.939 593.182Z" fill="#141A32"/>
<path d="M281.623 461.882L255.035 479.802C242.963 485.831 228.833 476.944 228.833 463.324V450.523C228.833 442.637 238.129 437.1 244.99 440.845C259.068 447.772 269.455 453.158 276.149 457.002C277.595 457.832 280.046 458.635 283.5 459.409L319.091 438.546C325.908 434.556 334.957 441.623 335.046 449.591V460.637C335.24 478.001 313.666 489.574 299.515 479.741L281.623 461.882Z" fill="#141A32"/>
<path d="M301.495 477.818H301.471H301.495ZM279.392 461.728L254.547 478.552C249.413 481.114 243.28 480.815 238.286 477.655C233.287 474.498 230.301 469.044 230.301 463.061V450.195C230.301 446.931 231.95 443.983 234.705 442.31C237.463 440.64 240.801 440.557 243.622 442.114L279.392 461.728ZM321.987 438.545C323.483 438.545 324.979 438.95 326.347 439.766C329.101 441.403 330.768 444.364 330.805 447.681L330.936 459.622C331.02 467.372 327.173 474.171 320.639 477.821C314.143 481.447 306.641 481.03 300.548 476.707L284.301 459.938L317.571 439.797C318.953 438.962 320.469 438.545 321.987 438.545ZM313.526 482.727C317.105 482.727 320.698 481.814 324.061 479.975C331.539 475.89 335.943 468.268 335.845 459.59L335.712 447.718C335.664 443.5 333.5 439.732 329.916 437.646C326.331 435.555 322.069 435.575 318.503 437.687L283.903 458.19L247.213 437.916C243.62 435.936 239.391 436.034 235.893 438.171C232.39 440.31 230.301 444.079 230.301 448.255V461.11C230.301 467.98 233.704 474.25 239.401 477.877C245.099 481.502 252.09 481.853 258.107 478.81L283.77 461.313L300.793 478.512L300.963 478.658C304.808 481.362 309.152 482.727 313.526 482.727Z" fill="#141A32"/>
<path d="M365.012 9C365.012 28.1212 349.573 43.622 330.528 43.622H221.77C202.725 43.622 187.286 28.1212 187.286 9" stroke="url(#paint1_linear_176_838)" stroke-opacity="0.514793"/>
<path opacity="0.414414" d="M366.166 221.572C375.727 221.572 383.477 213.822 383.477 204.261C383.477 194.701 375.727 186.95 366.166 186.95C356.606 186.95 348.855 194.701 348.855 204.261C348.855 213.822 356.606 221.572 366.166 221.572Z" fill="#D8D8D8"/>
<path d="M395.019 204.261H503.501" stroke="#979797" stroke-opacity="0.424233" stroke-width="2" stroke-linecap="round"/>
<path d="M395.019 195.029H503.501" stroke="#979797" stroke-opacity="0.424233" stroke-width="2" stroke-linecap="round"/>
<path d="M395.019 213.494H448.106" stroke="#979797" stroke-opacity="0.424233" stroke-width="2" stroke-linecap="round"/>
<path fill-rule="evenodd" clip-rule="evenodd" d="M432.961 401.33C439.747 407.986 445.252 412.41 449.474 414.603C453.667 416.78 459.124 418.069 465.846 418.471V418.471C466.063 418.487 466.251 418.325 466.268 418.109C466.27 418.077 466.269 418.044 466.263 418.012C464.474 409.172 467.157 402.839 474.312 399.011C481.531 395.149 488.1 396.389 494.018 402.732C494.127 402.837 494.286 402.874 494.427 402.821L503.661 399.528C503.866 399.455 504.09 399.562 504.163 399.766C504.211 399.901 504.182 400.052 504.086 400.159L498.934 405.935C498.789 406.097 498.803 406.345 498.965 406.49C499.057 406.571 499.182 406.606 499.302 406.582L506.804 405.11C507.017 405.068 507.224 405.207 507.265 405.42C507.291 405.55 507.249 405.683 507.155 405.776L498.282 414.479C498.201 414.554 498.158 414.66 498.162 414.77C498.773 433.525 491.154 447.437 475.305 456.505C459.765 465.397 443.274 465.285 425.834 456.17L425.834 456.171C425.643 456.068 425.571 455.83 425.674 455.639C425.739 455.518 425.862 455.44 425.999 455.433C433.09 454.912 437.935 454.295 440.533 453.582C443.097 452.877 445.85 451.426 448.793 449.229L448.795 449.231C448.969 449.101 449.004 448.855 448.874 448.681C448.819 448.608 448.739 448.556 448.649 448.534C445.613 447.839 442.576 446.598 439.539 444.811C436.483 443.013 434.273 440.937 432.909 438.586C432.8 438.398 432.861 438.157 433.047 438.046C433.11 438.008 433.181 437.989 433.254 437.99H440.608C440.825 437.987 440.999 437.809 440.996 437.593C440.995 437.439 440.904 437.301 440.764 437.24C438.037 435.981 435.311 434.282 432.585 432.143C429.391 429.637 427.737 425.923 427.623 421C427.618 420.783 427.79 420.604 428.007 420.599C428.05 420.598 428.092 420.603 428.132 420.618L435.065 422.885C435.272 422.952 435.493 422.838 435.56 422.632C435.603 422.498 435.571 422.35 435.475 422.247C432.81 419.304 431.184 416.106 430.598 412.654C429.963 408.918 430.545 405.183 432.343 401.448L432.339 401.446C432.432 401.251 432.667 401.167 432.863 401.26C432.899 401.278 432.933 401.3 432.962 401.328L432.961 401.33Z" fill="#5D8AFF" stroke="white"/>
</g>
<defs>
<filter id="filter0_f_176_838" x="338.855" y="179.258" width="176.953" height="82.3198" filterUnits="userSpaceOnUse" color-interpolation-filters="sRGB">
<feFlood flood-opacity="0" result="BackgroundImageFix"/>
<feBlend mode="normal" in="SourceGraphic" in2="BackgroundImageFix" result="shape"/>
<feGaussianBlur stdDeviation="5" result="effect1_foregroundBlur_176_838"/>
</filter>
<filter id="filter1_f_176_838" x="41.6689" y="100.782" width="92.7344" height="140.023" filterUnits="userSpaceOnUse" color-interpolation-filters="sRGB">
<feFlood flood-opacity="0" result="BackgroundImageFix"/>
<feBlend mode="normal" in="SourceGraphic" in2="BackgroundImageFix" result="shape"/>
<feGaussianBlur stdDeviation="5" result="effect1_foregroundBlur_176_838"/>
</filter>
<filter id="filter2_f_176_838" x="77.5166" y="426.229" width="135.363" height="85.7646" filterUnits="userSpaceOnUse" color-interpolation-filters="sRGB">
<feFlood flood-opacity="0" result="BackgroundImageFix"/>
<feBlend mode="normal" in="SourceGraphic" in2="BackgroundImageFix" result="shape"/>
<feGaussianBlur stdDeviation="5" result="effect1_foregroundBlur_176_838"/>
</filter>
<linearGradient id="paint0_linear_176_838" x1="276.149" y1="9" x2="276" y2="548" gradientUnits="userSpaceOnUse">
<stop stop-color="white"/>
<stop offset="1" stop-color="white"/>
</linearGradient>
<linearGradient id="paint1_linear_176_838" x1="276.149" y1="9" x2="276.148" y2="37.6702" gradientUnits="userSpaceOnUse">
<stop stop-color="white"/>
<stop offset="1" stop-color="white"/>
</linearGradient>
</defs>
</svg>
