<svg width="24" height="24" viewBox="0 0 24 24" fill="none" xmlns="http://www.w3.org/2000/svg">
<path opacity="0.85" d="M18.6662 0H5.33376C3.91916 0 2.56249 0.561948 1.56222 1.56222C0.561948 2.56249 0 3.91916 0 5.33376V18.6662C0 20.0809 0.561948 21.4375 1.56222 22.4377C2.56249 23.438 3.91916 24 5.33376 24H18.6662C20.0809 24 21.4375 23.438 22.4377 22.4377C23.438 21.4375 24 20.0809 24 18.6662V5.33376C24 3.91916 23.438 2.56249 22.4377 1.56222C21.4375 0.561948 20.0809 0 18.6662 0ZM18.7325 8.68515V9.14205C18.7404 10.375 18.5034 11.5972 18.0353 12.7378C17.567 13.8783 16.877 14.9146 16.0052 15.7864C15.1334 16.6582 14.0972 17.3482 12.9566 17.8163C11.816 18.2845 10.5938 18.5215 9.36098 18.5136C7.5795 18.4948 5.83836 17.9805 4.33248 17.0284H5.13216C6.61 16.9929 8.04323 16.5151 9.24675 15.6566C8.55953 15.6403 7.89413 15.4119 7.34177 15.0027C6.78942 14.5935 6.37709 14.0236 6.16128 13.3709C6.35536 13.3976 6.54769 13.4358 6.73728 13.4851C7.04668 13.5038 7.35687 13.4651 7.65217 13.3709C6.91528 13.2178 6.25281 12.8176 5.77445 12.2365C5.29608 11.6555 5.03053 10.9285 5.02176 10.176C5.49363 10.3954 5.99331 10.5491 6.50688 10.633C6.06239 10.2972 5.69843 9.86655 5.44151 9.3723C5.18459 8.87805 5.04119 8.33273 5.02176 7.776C4.99644 7.20711 5.15683 6.64542 5.47872 6.17568C6.29913 7.18804 7.32361 8.01623 8.48542 8.60618C9.64725 9.1962 10.9204 9.53483 12.2218 9.6C12.2218 9.37245 12.1076 9.14302 12.1076 8.80035C12.108 7.92135 12.4574 7.07846 13.079 6.45691C13.7005 5.83536 14.5434 5.48595 15.4224 5.48544C15.873 5.47284 16.321 5.55825 16.7354 5.73577C17.1498 5.91329 17.5207 6.17868 17.8224 6.5136C18.5548 6.38753 19.2544 6.11558 19.8797 5.71392C19.6221 6.48184 19.0943 7.13006 18.3946 7.53795C19.0693 7.45288 19.7255 7.25832 20.3376 6.96192C19.8941 7.61498 19.3531 8.19615 18.7334 8.68515H18.7325Z" fill="#64BEFF"/>
</svg>
