<?xml version="1.0" encoding="UTF-8"?>
<svg width="17px" height="16px" viewBox="0 0 17 16" version="1.1" xmlns="http://www.w3.org/2000/svg" xmlns:xlink="http://www.w3.org/1999/xlink">
    <title>Group 5</title>
    <g id="Home" stroke="none" stroke-width="1" fill="none" fill-rule="evenodd">
        <g id="Home-with-Schedule-meeting-2" transform="translate(-509.000000, -515.000000)">
            <g id="Group-9" transform="translate(350.000000, 371.000000)">
                <g id="Group-5" transform="translate(159.000000, 144.000000)">
                    <rect id="Rectangle" stroke="#979797" fill="#D8D8D8" opacity="0" x="0.5" y="0.5" width="15" height="15"></rect>
                    <g id="Group-4" transform="translate(0.975459, 3.085268)" stroke="#5C8AFF" stroke-linecap="round" stroke-linejoin="round" stroke-width="1.01958805">
                        <path d="M8.37193655,6.82301423 C8.09725492,7.56757291 7.61781283,8.21794023 6.99113107,8.69609482 C6.36444958,9.17419794 5.61721631,9.45971822 4.83917669,9.51830429 C4.06118769,9.57689008 3.28546676,9.406097 2.60521789,9.02641339 C1.92501966,8.64672951 1.36920967,8.07431093 1.00461322,7.37790687 C0.640011424,6.68155431 0.482117731,5.89077395 0.549889562,5.10071876 C0.617666618,4.31063266 0.908234498,3.55479951 1.38668258,2.92402408 C1.86513069,2.2932435 2.51110647,1.81435074 3.24701559,1.54486603 C3.9829247,1.27538132 4.77746801,1.2267764 5.53517678,1.40488268" id="Path" transform="translate(4.453248, 5.414578) rotate(-8.000000) translate(-4.453248, -5.414578) "></path>
                        <path d="M13.7665264,6.87295096 C13.4989067,7.58976521 13.0182671,8.21079762 12.3822722,8.66154606 C11.7462765,9.11224457 10.9820098,9.37345635 10.1812621,9.41375131 C9.38056654,9.45404708 8.5774307,9.27175758 7.86835181,8.88875344 C7.1593251,8.50575011 6.57449737,7.93832863 6.18418119,7.25463957 C5.79386059,6.57100037 5.61463836,5.80011203 5.66803706,5.03473305 C5.72144051,4.26932419 6.00520018,3.5419053 6.48522333,2.93986749 C6.9652464,2.33782468 7.62111335,1.88677062 8.37404165,1.64088171 C9.12696996,1.39499281 9.94493682,1.36473692 10.7296589,1.55374099" id="Path" transform="translate(9.712669, 5.425248) scale(-1, 1) rotate(63.000000) translate(-9.712669, -5.425248) "></path>
                    </g>
                </g>
            </g>
        </g>
    </g>
</svg>