<?xml version="1.0" encoding="UTF-8"?>
<svg width="16px" height="16px" viewBox="0 0 16 16" version="1.1" xmlns="http://www.w3.org/2000/svg" xmlns:xlink="http://www.w3.org/1999/xlink">
    <title>Group 6</title>
    <g id="Home" stroke="none" stroke-width="1" fill="none" fill-rule="evenodd">
        <g id="Home-with-Schedule-meeting-2" transform="translate(-397.000000, -515.000000)">
            <g id="Group-9" transform="translate(350.000000, 371.000000)">
                <g id="Group-6" transform="translate(47.000000, 144.000000)">
                    <rect id="Rectangle" stroke="#979797" fill="#D8D8D8" opacity="0" x="0.5" y="0.5" width="15" height="15"></rect>
                    <g id="UserPlus" transform="translate(2.000000, 2.000000)" stroke="#000000" stroke-linecap="round" stroke-linejoin="round" stroke-width="0.98371814">
                        <line x1="8.96868865" y1="1.43484101" x2="11.9374095" y2="1.43484101" id="Path"></line>
                        <line x1="10.4530491" y1="2.58836087e-06" x2="10.4530491" y2="2.86967942" id="Path"></line>
                        <path d="M0,10.9998565 C0.608315634,9.9820778 1.48300469,9.13691014 2.53620293,8.54934381 C3.58941602,7.96177748 4.78402927,7.65247415 6.00001732,7.65247415 C7.21605484,7.65247415 8.4106681,7.96182531 9.46387129,8.54943947 C10.517025,9.1370058 11.3917091,9.98217345 12,11" id="Path"></path>
                        <path d="M9.71403549,5.15241169 C9.44942351,5.84299942 8.98422496,6.44500979 8.37425179,6.8862226 C7.76427862,7.32738759 7.03550714,7.58895863 6.27546513,7.63946494 C5.5154726,7.68997126 4.75651913,7.52730841 4.08979391,7.1709902 C3.42311817,6.81467199 2.87701208,6.27985989 2.51713385,5.63078682 C2.15725067,4.98176157 1.9988892,4.24602426 2.06106411,3.51210441 C2.12324397,2.77815586 2.40332299,2.07717034 2.86765072,1.49336328 C3.33197844,0.909551444 3.96080299,0.467750347 4.6785902,0.221025098 C5.39637742,-0.0257001505 6.17259895,-0.0668465335 6.9139875,0.102521793" id="Path"></path>
                    </g>
                </g>
            </g>
        </g>
    </g>
</svg>