<svg width="132" height="127" viewBox="0 0 132 127" fill="none" xmlns="http://www.w3.org/2000/svg">
<path d="M0 109.028C0 94.7375 17.1348 87.4108 27.4557 97.2956L29.1781 98.9452C39.2932 108.327 32.6547 125.247 18.8582 125.247H16.2131C7.25886 125.247 0 117.983 0 109.028Z" fill="#34A853"/>
<path d="M60 87.2181C60 101.509 42.8652 108.836 32.5443 98.951L30.8219 97.3014C20.7068 87.9192 27.3453 71 41.1418 71H43.7869C52.7411 71 60 78.2639 60 87.2181Z" fill="#A8DAB5"/>
<rect width="30" height="56.5714" fill="#669DF6"/>
<rect x="30" width="30" height="26.5714" fill="#AECBFA"/>
<circle cx="45" cy="41.5714" r="15" fill="#D2E3FC"/>
<rect x="130" width="30" height="57" rx="15" transform="rotate(90 130 0)" fill="#EE675C"/>
<rect x="131" y="31" width="30" height="26.5714" rx="13.2857" transform="rotate(90 131 31)" fill="#F28B81"/>
<circle cx="88.4287" cy="46" r="15" transform="rotate(90 88.4287 46)" fill="#FAD2CF"/>
<path d="M72 72.0016L101.178 99.9469L129.534 126.248H81C76.0294 126.248 72 122.219 72 117.248V72.0016Z" fill="#FFE196"/>
<path d="M132 126.247L102.822 98.3014L74.4657 72H123C127.971 72 132 76.0294 132 81V126.247Z" fill="#FFF0CB"/>
</svg>
